<?xml version="1.0" encoding="iso-8859-1"?>

<!DOCTYPE svg PUBLIC "-//W3C//DTD SVG 1.1//EN" "http://www.w3.org/Graphics/SVG/1.1/DTD/svg11.dtd">
<!-- Uploaded to: SVG Repo, www.svgrepo.com, Generator: SVG Repo Mixer Tools -->
<svg version="1.1" id="_x35_" xmlns="http://www.w3.org/2000/svg" xmlns:xlink="http://www.w3.org/1999/xlink" 
	 viewBox="0 0 512 512"  xml:space="preserve">
<g>
	<rect style="fill:#587B78;" width="510.811" height="306.011"/>
	<path style="fill:#587B78;" d="M40.988,0v0.489c-0.21,3.707,6.015,0.77,8.464,1.679c-2.238,4.476-7.484,3.217-11.821,1.679
		C38.4,2.798,39.1,1.679,39.309,0H0v306.011h1.189v-0.56h276.914c-0.49-0.979-0.979-2.028-1.259-3.218
		c-0.14-0.42-0.28-0.909-0.28-1.329c-0.21-0.769-0.28-1.539-0.35-2.448v-0.07c-0.07-0.63-0.07-1.119-0.07-1.749v-0.21
		c0-6.995,3.427-12.66,7.694-12.66h70.715c-0.14-0.35-0.14-0.629-0.21-0.909c-0.769-3.917,4.197-2.099,6.995-2.518
		c-1.119,2.238-3.567,3.148-6.575,3.427h13.709c4.267,0,7.764,5.666,7.764,12.66c0,0.07-0.07,0.14-0.07,0.14
		c0.07,0.14,0.07,0.21,0.07,0.35c0,3.288-0.769,6.225-2.028,8.534h12.73c-0.49-0.979-0.979-2.028-1.259-3.218
		c-0.14-0.42-0.28-0.909-0.28-1.329c-0.21-0.769-0.28-1.539-0.35-2.448v-0.07c-0.07-0.63-0.07-1.119-0.07-1.749v-0.21
		c0-6.995,3.427-12.66,7.694-12.66h84.634c4.266,0,7.764,5.666,7.764,12.66c0,0.07-0.07,0.14-0.07,0.14c0,0.14,0.07,0.21,0.07,0.35
		c0,3.288-0.769,6.225-2.028,8.534h27.768V178.081c-2.378,0.21-4.616,0.35-6.155,1.119c-2.658-2.658,1.189-4.407,6.155-5.036V0
		H40.988z M359.659,57.845c-0.07,0.7-0.21,1.329-0.559,1.749c-0.14,0.28-0.35,0.49-0.56,0.63c-1.469,1.259-4.337,1.189-7.275,0.979
		c0-0.35,0.07-0.7,0.14-0.979C352.245,57.565,355.882,57.565,359.659,57.845z M361.337,105.058
		c-0.769,2.098-2.168,3.427-5.036,3.358C357.001,106.317,358.47,104.918,361.337,105.058z M349.517,37.561
		c0.35-0.07,0.7-0.07,0.979-0.07c0.7,0,1.119,0.14,1.469,0.49c0.21,0.21,0.42,0.49,0.49,0.769c0.42,1.049,0.35,2.588,0.49,3.917
		c-2.099-0.699-3.497-2.168-3.428-5.036V37.561z M343.012,85.403c0.21-0.49,0.42-0.909,0.839-1.259
		c0.7-0.699,1.819-1.049,3.218-1.049h0.769v0.07c0.35,3.637-1.399,5.316-5.036,4.966C342.732,87.082,342.802,86.172,343.012,85.403z
		 M337.766,93.237C338.046,88.201,344.76,94.846,337.766,93.237L337.766,93.237z M317.482,44.345c3.008,1.259,0.28,3.078,0,5.036
		C314.474,48.192,317.272,46.374,317.482,44.345z M298.946,61.202c-0.56,4.476-4.057,6.085-10.142,5.036
		C290.833,63.02,294.61,57.075,298.946,61.202z M243.34,76.38c8.254,0.28,10.842-0.839,13.22-0.28c0.35,0.14,0.699,0.21,1.049,0.42
		c0.42,0.14,0.769,0.42,1.189,0.699c0.56,0.35,1.189,0.839,1.889,1.469l1.119,1.119c-0.42,0.42-0.839,0.769-1.259,1.189
		c-3.008,2.938-5.316,6.435-10.492,7.135c-6.505-3.148,1.749-11.681-8.394-6.715C242.57,80.087,243.41,78.688,243.34,76.38z
		 M226.483,248.306c-0.07-1.959,0.699-3.218,1.889-3.917c0.42-0.28,0.839-0.42,1.329-0.49c1.259-0.21,2.658,0.14,3.497,1.049
		c-0.07,0.77-0.35,1.329-0.7,1.819c-0.07,0.14-0.21,0.28-0.35,0.42c-0.07,0.14-0.21,0.21-0.35,0.28c-0.07,0.14-0.28,0.28-0.42,0.28
		l-0.07,0.07c-0.21,0.14-0.42,0.21-0.7,0.28c-0.629,0.28-1.469,0.35-2.448,0.35C227.672,248.446,227.112,248.376,226.483,248.306z
		 M228.162,204.52c0.699-2.098,2.168-3.497,5.036-3.358C233.967,204.73,230.82,204.31,228.162,204.52z M202.841,96.594v3.357h-3.357
		v-3.357H202.841z M192.769,111.772C193.119,106.736,199.764,113.381,192.769,111.772L192.769,111.772z M179.27,49.381
		c-6.435,2.518-0.35-7.484-6.715-5.036c-0.28-3.008,2.029-3.567,1.679-6.715v-0.07c0.49,0.14,0.909,0.35,1.259,0.629
		c0.28,0.21,0.559,0.42,0.769,0.769c0.21,0.28,0.42,0.56,0.559,0.979c0.35,0.7,0.56,1.539,0.7,2.518
		c0.21,0.84,0.35,1.749,0.56,2.728c0.14,0.63,0.28,1.329,0.489,2.029C178.78,47.912,178.99,48.612,179.27,49.381z M169.128,51.13
		C169.477,46.024,176.122,52.669,169.128,51.13L169.128,51.13z M155.628,49.381h3.427v3.427h-3.427V49.381z M154.02,157.307v-5.106
		c0.28-0.14,0.559-0.28,0.769-0.28c0.629-0.14,1.189-0.07,1.609,0.14c1.679,0.979,1.679,4.407,0,5.385
		C155.838,157.797,154.999,157.797,154.02,157.307z M147.235,98.273c-4.686-0.839-8.743-2.448-13.499-3.358
		c1.749-3.917,5.805-5.385,11.821-5.036C144.857,93.937,148.634,93.517,147.235,98.273z M90.02,124.712
		c0.07-0.14,0.14-0.21,0.21-0.28c0.07-0.14,0.14-0.21,0.28-0.28c0.35-0.21,0.699-0.35,1.119-0.49c0.42-0.07,0.839-0.14,1.329-0.14
		c2.168,0,4.337,1.049,2.099,3.357c0-0.629-4.617-1.609-5.106-1.609C89.88,125.062,89.95,124.922,90.02,124.712z M86.522,118.557
		c-0.35,1.329-1.749,1.679-2.798,2.378c-0.21,0.21-0.42,0.35-0.559,0.56c-0.56,0.769-0.7,1.819,0,3.777
		c-4.756,1.399-4.337-2.378-8.394-1.679C78.409,121.565,82.465,120.096,86.522,118.557z M34.273,74.702
		c0.699,0.14,1.119,0.559,1.609,0.979c0.42,0.35,0.909,0.7,1.749,0.7c-0.28,1.329-1.679,1.679-1.679,3.357v0.07
		c-0.35-0.07-0.63-0.21-0.839-0.42c-0.49-0.35-0.909-0.839-1.469-1.119c-0.28-0.14-0.63-0.21-1.049-0.21
		C32.944,76.73,34.273,76.38,34.273,74.702z M23.431,169.687c0.35-0.21,0.839-0.42,1.259-0.629c0.56-0.35,1.119-0.769,1.189-1.609
		c0.21,0,0.42,0.07,0.629,0.21c0.14,0,0.28,0.14,0.35,0.35c0.14,0.14,0.21,0.28,0.28,0.49c0.07,0.14,0.14,0.35,0.14,0.56
		c0.069,0.21,0.069,0.42,0.069,0.629c0.14,0.909,0.07,1.959,0.21,2.798h-5.106C22.033,170.806,22.662,170.107,23.431,169.687z
		 M20.774,24.131c-0.769,0.49-1.469,0.909-2.028,1.329c-2.868,2.099-3.847,4.267-5.875,5.596c-0.28,0.28-0.63,0.489-1.049,0.629
		c-0.35,0.21-0.769,0.35-1.259,0.49c-0.49,0.14-0.979,0.28-1.539,0.35C11.191,27.978,14.409,24.481,20.774,24.131z M59.594,276.983
		C55.327,285.097,49.241,279.012,59.594,276.983L59.594,276.983z M84.984,286.566c-0.35-0.21-0.7-0.42-0.979-0.769
		c-0.63-0.769-0.909-1.959-0.839-3.707c1.189-0.07,2.098-0.35,2.868-0.629c0.63-0.28,1.189-0.49,1.749-0.63
		c0.35-0.14,0.7-0.21,1.049-0.21c0.35-0.07,0.699,0,1.119,0.21c0.28,0.14,0.56,0.35,0.909,0.56c0.21,0.21,0.49,0.42,0.769,0.699
		C91.139,285.097,87.362,287.545,84.984,286.566z M93.307,276.983C93.657,271.948,100.302,278.592,93.307,276.983L93.307,276.983z
		 M132.057,147.165c0-0.35,0.14-0.699,0.21-0.979H81.976v23.991h44.346v17.766H81.976v24.831h52.039v17.766h-8.393
		c-0.49,0.42-1.329,0.49-2.378,0h-63.16v-33.853c-0.35-0.21-0.56-0.42-0.77-0.56v-0.07c-0.42-0.49-0.42-1.119,0-1.679
		c0.21-0.21,0.42-0.42,0.77-0.63v-65.329h11.401c0.21-0.49,0.42-0.909,0.7-1.259c0.07-0.14,0.14-0.28,0.28-0.42l0.14-0.14
		c0.07-0.07,0.21-0.21,0.28-0.21c0.56-0.559,1.259-0.839,2.168-0.979c0.07-0.07,0.21-0.07,0.28-0.07c0.28-0.07,0.49-0.07,0.769-0.07
		h0.35c0.07,0.28,0.07,0.49,0.07,0.699c0.07,0.21,0.07,0.42,0,0.56c0,0.56-0.21,0.979-0.56,1.259c-0.14,0.14-0.28,0.21-0.49,0.28
		c-0.14,0.14-0.28,0.21-0.49,0.21c-0.14,0.07-0.28,0.07-0.42,0.14h59.454v11.821c0.49,0.07,0.909,0.14,1.399,0.21
		c-0.42,0.56-0.909,0.979-1.399,1.329v3.637C135.484,145.976,136.463,148.214,132.057,147.165z M125.342,147.165
		c-0.21,6.295-2.518,4.267-6.785,3.357C118.977,147.585,121.495,146.675,125.342,147.165z M103.379,160.664
		C103.729,155.628,110.373,162.273,103.379,160.664L103.379,160.664z M135.414,120.236c-8.673,1.259-6.995-8.883-3.357-11.821
		C136.253,109.325,136.533,114.99,135.414,120.236z M154.02,297.198c-0.28,1.469-1.119,2.448-2.378,3.008
		c-0.629,0.21-1.329,0.42-2.168,0.49c-1.189,0.14-2.518,0.07-3.917-0.07v-6.785h8.464
		C154.299,295.239,154.299,296.358,154.02,297.198z M150.592,260.127c0.42-2.938,2.938-3.847,6.785-3.358v5.036h5.036
		C158.916,267.331,153.67,260.546,150.592,260.127z M165.77,276.983c1.469-2.448,2.518-5.316,6.785-5.036
		C171.087,274.395,169.967,277.263,165.77,276.983z M180.949,258.448h-3.357v-3.357h3.357V258.448z M216.061,207.737h-60.993
		v-17.486h60.993V207.737z M216.061,176.612h-60.993v-17.486h60.993V176.612z M211.305,103.379v-3.427
		c3.357-0.56,5.246,0.35,5.036,3.427H211.305z M223.546,101.63c-1.189,0.07-2.448,0.07-3.847,0c-0.14-0.56-0.21-0.979-0.21-1.329
		c0-0.49,0.07-0.909,0.28-1.119c0.07-0.21,0.28-0.42,0.49-0.56c0.14-0.14,0.42-0.21,0.63-0.28c0.21-0.14,0.49-0.21,0.839-0.21
		c2.378-0.28,6.085,0.769,8.114,0.14c-0.21,0.35-0.42,0.699-0.699,1.049c-0.35,0.35-0.7,0.7-1.189,0.979
		c-0.35,0.28-0.63,0.42-1.049,0.56c-0.42,0.21-0.909,0.35-1.399,0.49C224.944,101.49,224.245,101.56,223.546,101.63z
		 M226.483,260.127c2.658,0.14,6.435-0.77,6.715,1.679C235.016,267.751,222.846,266.352,226.483,260.127z M234.877,148.844h-3.358
		v-3.357h3.358V148.844z M236.695,105.967c0.07-0.14,0.07-0.28,0.14-0.35c0.14-0.35,0.35-0.56,0.63-0.699
		c0.559-0.28,1.259,0,1.679,0.42c0.21,0.14,0.42,0.28,0.49,0.49c0.42,0.769,0,1.609-3.008,0.909
		C236.625,106.457,236.625,106.177,236.695,105.967z M243.34,241.591C245.298,236.485,252.293,243.41,243.34,241.591L243.34,241.591
		z M260.197,265.163C260.546,260.127,267.191,266.771,260.197,265.163L260.197,265.163z M278.732,283.348
		c-0.839,1.679-5.875-0.909-6.715,0.77c-0.14,0.28-0.14,0.699,0,1.259c-0.56-0.28-0.979-0.42-1.259-0.63
		c-3.288-1.958,4.966-2.168,2.938-6.085c0.42,0.14,0.769,0.28,1.049,0.56c0.909,0.629,1.539,1.609,2.448,2.238
		c0.42,0.28,0.909,0.559,1.539,0.629C278.872,282.649,278.872,283.069,278.732,283.348z M275.375,266.911
		c1.189-8.323,9.652,1.679,10.072-1.749C290.903,268.24,276.983,270.409,275.375,266.911z M288.804,256.769h-3.357v-3.357h3.357
		V256.769z M337.766,224.734C343.501,229.071,329.093,228.791,337.766,224.734L337.766,224.734z M360.638,229.56
		c-0.35,0.49-1.609,0.77-4.337,0.21c0.699-1.889,2.098-2.098,3.148-1.749c0.21,0,0.42,0.07,0.559,0.28
		c0.21,0.14,0.42,0.28,0.56,0.42C360.778,229.001,360.848,229.351,360.638,229.56z M361.757,220.957h-20.564v-45.115
		c0-2.588-0.35-4.756-1.189-6.505c-0.769-1.679-1.819-3.078-3.148-4.126c-1.329-1.049-2.798-1.819-4.407-2.308
		c-1.609-0.49-3.217-0.699-4.826-0.699h-0.7c-1.329,0.07-2.728,0.28-4.127,0.699c-1.609,0.49-3.078,1.189-4.407,2.238
		c-1.259,0.979-2.378,2.378-3.218,4.057c-0.839,1.749-1.259,3.777-1.259,6.155v45.605h-20.494v-45.115
		c0-2.588-0.42-4.756-1.189-6.505c-0.769-1.679-1.818-3.078-3.147-4.126c-1.329-1.049-2.798-1.819-4.407-2.308
		c-1.679-0.49-3.288-0.699-4.826-0.699h-0.7c-1.329,0.07-2.728,0.28-4.127,0.699c-1.609,0.49-3.078,1.259-4.407,2.308
		c-1.329,1.049-2.378,2.448-3.218,4.126c-0.839,1.749-1.259,3.917-1.259,6.505v45.115h-20.494v-34.203h-0.07
		c-0.14,0-0.21,0.07-0.35,0.07c-0.07,0.07-0.21,0.07-0.35,0.07c-0.35,0.07-0.7,0.07-0.979,0.07c-0.42,0-0.769-0.07-1.189-0.21
		c-0.63-0.07-1.189-0.35-1.679-0.699c-0.35-0.14-0.63-0.42-0.909-0.63v-0.07c-0.42-0.35-0.77-0.77-1.049-1.329
		c-0.21-0.28-0.35-0.7-0.49-1.049c-0.21-0.63-0.35-1.259-0.35-2.028h7.414v-34.693h20.004v6.924
		c2.728-2.518,5.876-4.406,9.443-5.805c1.958-0.699,3.987-1.259,6.015-1.609c0.629-0.14,1.329-0.21,1.958-0.21
		c0.77-0.14,1.609-0.14,2.378-0.14h0.35c1.119,0,2.238,0.07,3.288,0.14c0.839,0.07,1.679,0.21,2.518,0.28
		c2.448,0.35,4.756,0.979,6.924,1.819c3.497,1.539,6.505,3.777,9.093,6.855l0.28,0.35c3.497-3.357,7.204-5.736,11.051-7.274
		c2.099-0.769,4.337-1.329,6.785-1.749c0.909-0.14,1.819-0.21,2.798-0.28c1.049-0.14,2.168-0.14,3.288-0.14h0.35
		c0.979,0,1.959,0.07,2.868,0.07c3.147,0.21,6.155,0.699,8.953,1.609c3.497,1.189,6.435,2.798,8.743,4.896
		c3.357,3.078,5.666,6.365,6.995,9.862c1.329,3.428,2.028,7.275,2.028,11.401V220.957z M371.48,138.771
		c-1.819-0.42-1.189-3.357-3.427-3.357c0.28-2.029,3.078-1.469,5.106-1.749C373.578,136.463,371.55,136.603,371.48,138.771z
		 M491.156,98.273C491.436,93.237,498.15,99.882,491.156,98.273L491.156,98.273z M467.515,5.596
		c-0.21,6.225-2.378,4.197-6.715,3.357C461.22,5.945,463.667,5.106,467.515,5.596z M462.479,37.561v-3.288h3.427v3.288H462.479z
		 M459.121,22.243c0-0.28,0.07-0.49,0.28-0.63c0.07-0.14,0.28-0.28,0.49-0.42c1.819-0.979,6.365-0.49,5.036,1.959
		c-0.21,0.28-0.42,0.559-0.699,0.839c0-0.28-0.979-0.63-2.028-0.839c-0.7-0.21-1.469-0.42-2.029-0.56
		c-0.629-0.14-1.049-0.21-1.049-0.14V22.243z M457.443,27.489c1.818,0.42,1.119,3.357,3.357,3.357c-0.35,1.959-1.679,0.979-1.679,0
		c-1.469-0.28-1.609,0.699-1.679,1.679c-1.609,0-1.329-2.028-1.679-3.357C457.163,29.517,457.303,28.537,457.443,27.489z
		 M438.907,118.557C444.713,122.894,430.234,122.614,438.907,118.557L438.907,118.557z M427.086,93.237
		C427.436,88.201,434.081,94.846,427.086,93.237L427.086,93.237z M438.907,113.451c0,0.14-0.14,0.35-0.35,0.49
		c-0.35,0.35-0.979,0.699-1.749,1.049c-0.769,0.35-1.679,0.699-2.728,0.979c-0.769,0.21-1.609,0.42-2.448,0.49
		c-0.77,0.14-1.609,0.21-2.378,0.21c-3.287,0-6.015-1.189-5.525-4.896C428.975,112.122,436.109,110.653,438.907,113.451z
		 M418.623,46.024C418.973,40.988,425.617,47.633,418.623,46.024L418.623,46.024z M412.048,118.627c0.35-0.07,0.63,0,0.909,0.14
		c0.49,0.14,0.909,0.35,1.189,0.699c0.07,0,0.14,0.07,0.14,0.14c0.14,0.07,0.21,0.14,0.14,0.21c0.28,0.21,0.42,0.559,0.56,0.909
		c0.07,0.14,0.07,0.21,0.07,0.35c0.21,0.42,0.28,0.909,0.28,1.469v1.049h-0.909c-0.49,0-0.909-0.07-1.329-0.21
		c-0.21,0.07-0.42,0-0.63-0.14c-0.489-0.14-0.839-0.42-1.189-0.7c-0.839-0.839-1.259-2.168-1.049-3.987
		C410.929,118.487,411.559,118.557,412.048,118.627z M404.844,23.431l0.839,0.839c0.28,0.28,0.49,0.56,0.699,0.769
		c0.21,0.14,0.21,0.21,0.21,0.28c-0.21-0.14-0.63-0.49-1.399-1.189c-0.35-0.35-0.629-0.699-0.839-0.909
		c-0.28-0.35-0.35-0.489-0.35-0.489C404.144,22.732,404.424,23.012,404.844,23.431z M403.515,42.667
		C405.963,37.071,407.641,49.241,403.515,42.667L403.515,42.667z M398.409,56.166c-0.909,1.049-1.609,1.609-2.168,1.819
		c-0.77,0.28-1.259,0-1.539-0.42C393.722,56.236,394.841,52.948,398.409,56.166z M395.051,39.309h3.358
		C397.989,45.395,391.344,44.275,395.051,39.309z M387.567,104.918c0.49-0.28,1.259,0,1.679,0.42c0.21,0.14,0.35,0.28,0.42,0.42
		c0.14,0.28,0.21,0.559,0.07,0.839c-0.07,0.14-0.21,0.21-0.42,0.28c-0.489,0.14-1.329,0.14-2.658-0.14
		C386.728,105.687,387.078,105.128,387.567,104.918z M376.516,250.055C380.433,241.661,387.707,248.865,376.516,250.055
		L376.516,250.055z M384.909,251.733c1.539-3.567,0.07-10.072,6.785-8.464C389.176,245.998,393.792,252.363,384.909,251.733z
		 M388.337,238.234v-5.036C393.232,230.68,393.232,240.682,388.337,238.234z M429.744,168.078l-0.35-0.35
		c-2.029-1.959-3.917-3.357-5.806-4.197c-1.609-0.7-3.497-1.119-5.596-1.259c-0.63-0.07-1.259-0.07-1.889-0.07h-0.35
		c-0.49,0-0.909,0-1.329,0.07c-3.917,0.42-7.135,2.029-9.652,4.757c-1.539,1.818-2.728,4.057-3.427,6.645
		c-0.769,2.588-1.119,5.876-1.119,9.863c0,7.694,1.539,13.22,4.547,16.647c2.518,2.798,5.736,4.407,9.652,4.826
		c0.42,0.07,0.839,0.07,1.329,0.07h0.699c2.728,0,5.106-0.489,7.135-1.399c1.889-0.839,3.777-2.238,5.806-4.197l0.35-0.28
		l13.849,12.45c-3.707,3.428-7.694,6.016-12.03,7.694c-4.407,1.679-9.443,2.518-15.109,2.518h-0.699c-0.839,0-1.749,0-2.588-0.14
		c-3.078-0.28-6.225-0.769-9.373-1.609c-0.559-0.14-1.049-0.35-1.609-0.49c-0.14,0-0.35,0-0.49,0.07h-0.07c0,0-0.07,0-0.14,0
		c-0.07,0.07-0.14,0.07-0.21,0.07s-0.14,0-0.21,0.07c-0.28,0.07-0.49,0.21-0.7,0.28c-0.07,0-0.07,0.07-0.14,0.14
		c-0.14,0.07-0.28,0.21-0.42,0.35c-1.539,1.469-1.749,4.127-3.078,5.805c-3.008,0.21-3.567-2.029-6.715-1.679
		c0-0.28,0.07-0.63,0.14-0.909c0.07-0.28,0.14-0.56,0.28-0.909c0.21-0.56,0.42-1.119,0.699-1.609
		c0.35-0.559,0.769-1.189,1.259-1.749c0.42-0.49,0.909-0.979,1.399-1.399c0.49-0.42,0.979-0.84,1.539-1.189
		c0.14-0.14,0.28-0.21,0.42-0.28c-1.329-0.769-2.588-1.679-3.847-2.658c-3.497-2.938-6.435-6.854-8.743-11.751
		c-2.308-4.966-3.427-11.191-3.427-18.745c0-7.554,1.119-13.779,3.427-18.676c2.308-4.966,5.246-8.883,8.743-11.681
		c3.567-2.938,7.484-4.896,11.891-6.085c1.539-0.42,3.148-0.769,4.687-1.049c1.609-0.21,3.147-0.42,4.686-0.56
		c0.839-0.07,1.749-0.07,2.588-0.07h0.699c5.666,0,10.702,0.769,15.109,2.378c4.336,1.679,8.323,4.197,12.03,7.624L429.744,168.078z
		 M440.586,169.128c-3.008-1.259-0.28-3.078,0-5.036C443.593,165.281,440.796,167.099,440.586,169.128z M424.498,198.015
		c1.049-0.21,1.958-0.77,2.588-1.959c0.35,0.35,0.56,0.63,0.699,0.909c0.24,0.447,0.287,0.841,0.198,1.194
		c-0.097,0.365-0.339,0.696-0.687,0.974c-1.889,1.609-6.715,2.168-10.282,1.609c-0.42-0.07-0.769-0.14-1.119-0.28
		c-0.42-0.07-0.77-0.21-1.119-0.35c-0.49-0.14-0.909-0.35-1.189-0.63v-0.07c0-3.707,2.728-2.868,5.875-2.028
		C421.141,197.875,422.959,198.365,424.498,198.015z M454.085,180.949h-5.106v-3.427c3.427-0.56,5.316,0.35,5.106,3.357V180.949z
		 M464.157,250.055c-0.769-0.839-1.119-1.329-1.189-1.399c0.14,0,0.49,0.28,0.839,0.699c0.14,0.14,0.28,0.28,0.42,0.42
		c0.14,0.14,0.28,0.28,0.42,0.42c0.28,0.28,0.49,0.56,0.699,0.77c0.21,0.14,0.28,0.21,0.21,0.28
		C465.346,251.104,464.926,250.754,464.157,250.055z M455.764,162.343c1.749-1.679,2.658-2.728,3.218-3.497
		c0.14-0.14,0.21-0.28,0.35-0.35c0.979-1.189,1.539-1.399,6.575-2.868c2.238,0.489,1.329,4.197,1.609,6.714H455.764z
		 M472.621,250.055c-2.728-4.337-4.267-7.484-8.464-13.5c5.246-0.839,8.184,2.099,5.036,5.036c4.756-0.909,8.743-2.448,13.499-3.357
		c-0.42,0.629-0.769,1.189-1.119,1.749C478.216,245.088,476.747,246.347,472.621,250.055z M479.405,138.631v4.127h-36.791v-10.982
		l0.909-0.979l3.078-3.287l16.507-17.416c0.839-0.909,1.398-1.679,1.749-2.308c0.28-0.56,0.42-1.259,0.42-2.028
		c0-1.259-0.35-2.168-1.049-2.868c-0.63-0.699-1.679-1.049-3.218-1.049h-0.14c-0.56,0-1.119,0.07-1.679,0.28
		c-0.49,0.14-0.909,0.35-1.329,0.63c-0.35,0.28-0.63,0.629-0.839,1.119c-0.21,0.49-0.35,1.119-0.35,2.028v2.168h-14.059v-2.168
		c0-2.588,0.42-4.896,1.399-6.924c0.979-2.028,2.308-3.777,4.057-5.176c1.679-1.399,3.637-2.518,5.875-3.218
		c0.769-0.21,1.539-0.42,2.308-0.559c0.14-0.07,0.21-0.14,0.35-0.21c0.7-0.49,1.469-0.839,2.169-1.329
		c0.35-0.21,0.699-0.42,1.049-0.699c0.35-0.35,0.7-0.769,0.979-1.259c1.399,0.629,1.469,1.819,0.769,3.008c0.07,0,0.14,0,0.21,0.07
		h0.42c2.098,0.07,4.127,0.42,6.015,1.049c2.238,0.7,4.197,1.819,5.875,3.148c1.679,1.399,2.938,3.148,3.917,5.246
		c0.909,1.959,1.398,4.267,1.398,6.785c0,1.329-0.14,2.588-0.49,3.707c-0.28,1.119-0.699,2.168-1.259,3.148
		c-0.559,1.049-1.259,2.028-2.098,2.938c-0.699,0.909-1.539,1.819-2.448,2.798l-11.401,12.03h17.696v4.547
		c2.798-3.218,8.604-3.427,15.109-3.008C490.387,138.701,487.239,138.002,479.405,138.631z M508.013,76.38h-3.357v-3.357h3.357
		V76.38z M502.907,39.309c0.629,1.888,3.008,4.267,3.427,1.679c4.756,2.238-4.336,4.477-8.464,3.357
		c-0.35-2.238-0.21-4.057,0.28-5.526c0.28-1.119,0.77-2.029,1.399-2.868c4.966,1.889,6.295,0.979,8.464-3.427
		C514.028,36.022,505.145,38.54,502.907,39.309z"/>
	<path style="fill:#4B6E64;" d="M135.423,140.448c-0.501-0.091-0.951-0.157-1.377-0.212v1.526
		C134.528,141.462,134.998,141.039,135.423,140.448z"/>
	<path style="fill:#4B6E64;" d="M37.651,76.384c-1.687,0-2.011-1.372-3.382-1.688c0.019,1.688-1.345,2.008-1.672,3.371
		c1.691-0.019,2.007,1.375,3.367,1.699C35.964,78.049,37.323,77.743,37.651,76.384z"/>
	<path style="fill:#4B6E64;" d="M132.27,146.209c-0.101,0.268-0.182,0.577-0.21,0.988c4.391,1.001,3.412-1.245,1.986-1.811v0.822
		H132.27z"/>
	<path style="fill:#4B6E64;" d="M192.741,111.79C199.739,113.403,193.099,106.739,192.741,111.79L192.741,111.79z"/>
	<path style="fill:#4B6E64;" d="M202.858,96.618c-1.118,0-2.249,0-3.367,0c0,1.108,0,2.249,0,3.36c1.118,0,2.249,0,3.367,0
		C202.858,98.867,202.858,97.726,202.858,96.618z"/>
	<path style="fill:#4B6E64;" d="M285.477,265.193c-0.426,3.401-8.939-6.603-10.117,1.691
		C276.972,270.413,290.901,268.214,285.477,265.193z"/>
	<path style="fill:#4B6E64;" d="M298.954,61.212c-4.335-4.137-8.094,1.8-10.121,5.051C294.905,67.276,298.359,65.657,298.954,61.212
		z"/>
	<path style="fill:#4B6E64;" d="M285.477,256.763c1.122,0,2.249,0,3.356,0c0-1.122,0-2.245,0-3.367c-1.108,0-2.234,0-3.356,0
		C285.477,254.518,285.477,255.641,285.477,256.763z"/>
	<path style="fill:#4B6E64;" d="M273.676,278.681c2.23,4.227-7.857,4.095-1.683,6.738c-1.209-4.58,7.951,1.213,6.735-3.367
		C276.316,281.65,275.89,279.288,273.676,278.681z"/>
	<path style="fill:#4B6E64;" d="M229.851,98.291c-3.488,1.032-11.715-2.723-10.121,3.379
		C224.573,102.012,228.283,101.244,229.851,98.291z"/>
	<path style="fill:#4B6E64;" d="M233.218,201.133c-2.912-0.087-4.332,1.299-5.07,3.382
		C230.811,204.331,234.002,204.722,233.218,201.133z"/>
	<path style="fill:#4B6E64;" d="M234.898,145.502c-1.119,0-2.246,0-3.383,0c0,1.119,0,2.238,0,3.368c1.137,0,2.263,0,3.383,0
		C234.898,147.74,234.898,146.622,234.898,145.502z"/>
	<path style="fill:#4B6E64;" d="M211.307,99.979c0,1.118,0,2.253,0,3.382c1.669,0,3.352,0,5.05,0
		C216.569,100.333,214.689,99.409,211.307,99.979z"/>
	<path style="fill:#4B6E64;" d="M236.585,106.721C243.583,108.348,236.928,101.67,236.585,106.721L236.585,106.721z"/>
	<path style="fill:#4B6E64;" d="M250.066,88.166c5.944-0.776,8.128-5.348,11.808-8.399c-6.622-6.147-5.276-2.927-18.554-3.383
		c0.09,2.313-0.784,3.703-1.684,5.047C251.784,76.466,243.527,85.009,250.066,88.166z"/>
	<path style="fill:#4B6E64;" d="M153.927,278.679c0.229,0.012,0.459,0.023,0.643,0.036c-0.177,0-0.365-0.016-0.588-0.034
		C153.962,278.68,153.947,278.68,153.927,278.679z"/>
	<path style="fill:#4B6E64;" d="M153.927,278.679c-0.376-0.019-0.786-0.038-1.245-0.054
		C153.061,278.639,153.473,278.651,153.927,278.679z"/>
	<path style="fill:#4B6E64;" d="M145.545,293.868c0,2.242,0,4.471,0,6.739c5.762,0.693,9.601-0.52,8.437-6.739
		C151.153,293.868,148.351,293.868,145.545,293.868z"/>
	<path style="fill:#4B6E64;" d="M159.029,49.407c-1.119,0-2.226,0-3.367,0c0,1.13,0,2.249,0,3.371c1.141,0,2.248,0,3.367,0
		C159.029,51.655,159.029,50.537,159.029,49.407z"/>
	<path style="fill:#4B6E64;" d="M165.779,276.997c4.211,0.286,5.288-2.583,6.758-5.051
		C168.31,271.653,167.259,274.534,165.779,276.997z"/>
	<path style="fill:#4B6E64;" d="M169.15,51.109C176.152,52.699,169.49,46.043,169.15,51.109L169.15,51.109z"/>
	<path style="fill:#4B6E64;" d="M153.982,152.234c0,1.699,0,3.383,0,5.07C158.901,159.782,158.901,149.755,153.982,152.234z"/>
	<path style="fill:#4B6E64;" d="M177.584,258.458c1.126,0,2.249,0,3.352,0c0-1.137,0-2.245,0-3.367c-1.103,0-2.226,0-3.352,0
		C177.584,256.213,177.584,257.321,177.584,258.458z"/>
	<path style="fill:#4B6E64;" d="M179.267,49.407c-2.331-6.064-1.032-10.735-5.066-11.805c0.388,3.183-1.895,3.725-1.665,6.754
		C178.929,41.873,172.857,51.893,179.267,49.407z"/>
	<path style="fill:#4B6E64;" d="M162.412,261.825c-1.68,0-3.383,0-5.063,0c0-1.679,0-3.367,0-5.062
		c-3.846-0.456-6.339,0.41-6.738,3.383C153.688,260.574,158.931,267.324,162.412,261.825z"/>
	<path style="fill:#4B6E64;" d="M83.179,282.052c-0.535,7.902,7.782,4.52,8.419,0C88.393,278.903,87.371,281.876,83.179,282.052z"/>
	<path style="fill:#4B6E64;" d="M20.796,24.117c-6.381,0.369-9.602,3.887-11.801,8.437C15.078,31.624,14.445,27.647,20.796,24.117z"
		/>
	<path style="fill:#4B6E64;" d="M149.368,278.474C147.982,278.414,147.436,278.407,149.368,278.474L149.368,278.474z"/>
	<path style="fill:#4B6E64;" d="M103.403,160.667C110.401,162.279,103.753,155.616,103.403,160.667L103.403,160.667z"/>
	<path style="fill:#4B6E64;" d="M94.965,126.944c4.061-4.041-5.526-4.358-5.055-1.665C89.884,125.162,95.613,126.311,94.965,126.944
		z"/>
	<path style="fill:#4B6E64;" d="M93.293,276.997C100.303,278.609,93.639,271.947,93.293,276.997L93.293,276.997z"/>
	<path style="fill:#4B6E64;" d="M135.423,120.209c1.086-5.232,0.818-10.901-3.363-11.786
		C128.414,111.376,126.708,121.517,135.423,120.209z"/>
	<path style="fill:#4B6E64;" d="M145.545,89.868c-6.001-0.369-10.088,1.146-11.79,5.055c4.712,0.896,8.762,2.479,13.477,3.367
		C148.63,93.53,144.855,93.933,145.545,89.868z"/>
	<path style="fill:#4B6E64;" d="M125.66,230.542h-2.443C124.349,231.063,125.185,230.968,125.66,230.542z"/>
	<path style="fill:#4B6E64;" d="M118.571,150.55c4.282,0.874,6.543,2.882,6.754-3.352C121.464,146.708,118.986,147.6,118.571,150.55
		z"/>
	<path style="fill:#4B6E64;" d="M49.458,2.19c-2.247,4.423-7.478,3.23-11.813,1.685c0.737-1.088,1.439-2.212,1.632-3.862h1.685
		c0.018,0.158,0.035,0.334,0.053,0.509C40.751,4.173,47.018,1.277,49.458,2.19z"/>
	<path style="fill:#4B6E64;" d="M27.534,172.472c-0.268-1.977,0.294-4.783-1.672-5.062c-0.158,2.655-4.309,1.326-3.379,5.062
		C24.159,172.472,25.862,172.472,27.534,172.472z"/>
	<path style="fill:#4B6E64;" d="M59.574,276.997C49.215,278.994,55.348,285.111,59.574,276.997L59.574,276.997z"/>
	<path style="fill:#4B6E64;" d="M83.179,125.279c-1.94-5.307,2.641-4.11,3.363-6.739c-4.061,1.552-8.166,3.055-11.797,5.04
		C78.806,122.903,78.403,126.665,83.179,125.279z"/>
	<path style="fill:#4B6E64;" d="M76.441,125.279c-2.798-0.105-4.222,1.202-4.977,3.146h3.011
		C75.918,128.162,76.915,127.454,76.441,125.279z"/>
	<path style="fill:#4B6E64;" d="M60.055,196.715v-2.958C58.629,194.625,58.629,195.842,60.055,196.715z"/>
	<path style="fill:#4B6E64;" d="M226.468,260.146c-3.601,6.188,8.58,7.605,6.75,1.679
		C232.906,259.328,229.149,260.281,226.468,260.146z"/>
	<path style="fill:#4B6E64;" d="M226.468,248.344c3.838,0.456,6.332-0.404,6.75-3.371
		C231.233,242.833,226.22,243.629,226.468,248.344z"/>
	<path style="fill:#4B6E64;" d="M260.172,265.193C267.178,266.805,260.526,260.146,260.172,265.193L260.172,265.193z"/>
	<path style="fill:#4B6E64;" d="M317.505,49.407c0.237-1.996,2.994-3.827,0-5.051C317.256,46.34,314.491,48.179,317.505,49.407z"/>
	<path style="fill:#4B6E64;" d="M337.74,224.738C329.069,228.799,343.533,229.093,337.74,224.738L337.74,224.738z"/>
	<path style="fill:#4B6E64;" d="M243.32,241.591C252.273,243.44,245.324,236.483,243.32,241.591L243.32,241.591z"/>
	<path style="fill:#4B6E64;" d="M238.265,180.91c-0.011,4.57,4.201,6.827,7.344,5.838v-5.838
		C243.164,180.91,240.711,180.91,238.265,180.91z"/>
	<path style="fill:#4B6E64;" d="M438.882,113.475c-2.802-2.821-9.895-1.345-15.172-1.684
		C422.535,120.258,438.336,115.659,438.882,113.475z"/>
	<path style="fill:#4B6E64;" d="M415.299,123.58c0.29-3.676-1.394-5.348-5.073-5.04C409.917,122.201,411.601,123.885,415.299,123.58
		z"/>
	<path style="fill:#4B6E64;" d="M405.174,24.117C410.301,28.727,400.568,18.994,405.174,24.117L405.174,24.117z"/>
	<path style="fill:#4B6E64;" d="M388.304,233.168c0,1.672,0,3.371,0,5.055C393.223,240.709,393.223,230.69,388.304,233.168z"/>
	<path style="fill:#4B6E64;" d="M418.652,46.043C425.65,47.652,418.999,40.973,418.652,46.043L418.652,46.043z"/>
	<path style="fill:#4B6E64;" d="M403.491,42.661C407.672,49.249,405.943,37.071,403.491,42.661L403.491,42.661z"/>
	<path style="fill:#4B6E64;" d="M389.995,224.738c3.183-0.369,3.718,1.906,6.746,1.695c1.818-2.298,1.539-6.639,5.475-6.812
		c-2.277-0.727-4.434-1.704-6.47-2.935C392.798,218.393,390.149,221.825,389.995,224.738z"/>
	<path style="fill:#4B6E64;" d="M427.097,93.236C434.095,94.848,427.421,88.185,427.097,93.236L427.097,93.236z"/>
	<path style="fill:#4B6E64;" d="M440.57,169.104c0.237-1.989,3.009-3.827,0-5.047C440.337,166.053,437.572,167.862,440.57,169.104z"
		/>
	<path style="fill:#4B6E64;" d="M438.882,118.54C430.212,122.605,444.691,122.883,438.882,118.54L438.882,118.54z"/>
	<path style="fill:#4B6E64;" d="M413.593,199.449c3.785,2.953,18.246,1.303,13.504-3.387
		C423.846,202.078,413.612,192.299,413.593,199.449z"/>
	<path style="fill:#4B6E64;" d="M347.861,83.134c-3.695-0.316-5.378,1.371-5.066,5.032C346.471,88.478,348.154,86.81,347.861,83.134
		z"/>
	<path style="fill:#4B6E64;" d="M398.44,56.142C392.753,51.031,393.313,62.379,398.44,56.142L398.44,56.142z"/>
	<path style="fill:#4B6E64;" d="M371.451,138.745c0.102-2.151,2.155-2.316,1.684-5.047c-1.978,0.263-4.773-0.298-5.051,1.687
		C370.299,135.408,369.636,138.354,371.451,138.745z"/>
	<path style="fill:#4B6E64;" d="M351.228,61.212c4.177,0.256,8.17,0.312,8.418-3.364C355.469,57.595,351.481,57.535,351.228,61.212z
		"/>
	<path style="fill:#4B6E64;" d="M352.912,42.661c-0.162-2.633,0.222-5.835-3.383-5.059
		C349.439,40.502,350.833,41.934,352.912,42.661z"/>
	<path style="fill:#4B6E64;" d="M386.635,106.721C393.626,108.348,386.978,101.67,386.635,106.721L386.635,106.721z"/>
	<path style="fill:#4B6E64;" d="M398.44,39.29c-1.138,0-2.26,0-3.383,0C391.317,44.269,398.01,45.407,398.44,39.29z"/>
	<path style="fill:#4B6E64;" d="M384.936,251.708c8.847,0.686,4.226-5.71,6.734-8.415C385,241.651,386.443,248.152,384.936,251.708z
		"/>
	<path style="fill:#4B6E64;" d="M504.638,76.384c1.122,0,2.241,0,3.367,0c0-1.146,0-2.245,0-3.367c-1.126,0-2.245,0-3.367,0
		C504.638,74.139,504.638,75.238,504.638,76.384z"/>
	<path style="fill:#4B6E64;" d="M504.631,179.213c1.562-0.755,3.827-0.913,6.179-1.159v-3.914
		C505.878,174.789,501.998,176.51,504.631,179.213z"/>
	<path style="fill:#4B6E64;" d="M464.173,24.117c4.049-4.045-5.522-4.355-5.055-1.665C459.095,22.317,464.828,23.473,464.173,24.117
		z"/>
	<path style="fill:#4B6E64;" d="M467.54,5.585c-3.839-0.482-6.324,0.392-6.735,3.36C465.106,9.819,467.336,11.816,467.54,5.585z"/>
	<path style="fill:#4B6E64;" d="M449.004,177.527c0,1.138,0,2.26,0,3.383c1.688,0,3.368,0,5.055,0
		C454.277,177.881,452.386,176.947,449.004,177.527z"/>
	<path style="fill:#4B6E64;" d="M457.426,32.554c0.102-1.032,0.26-2.011,1.692-1.699c-0.008,0.946,1.363,1.918,1.687,0
		c-2.229-0.018-1.551-2.937-3.379-3.371c-0.094,1.032-0.241,2.008-1.676,1.702C456.138,30.483,455.799,32.51,457.426,32.554z"/>
	<path style="fill:#4B6E64;" d="M461.591,89.547c0.668-1.217,0.592-2.413-0.786-3.046c-0.915,1.768-2.931,2.425-4.534,3.496
		c1.513-0.303,3.095-0.471,4.741-0.471C461.207,89.526,461.396,89.543,461.591,89.547z"/>
	<path style="fill:#4B6E64;" d="M491.149,98.291C498.151,99.899,491.469,93.255,491.149,98.291L491.149,98.291z"/>
	<path style="fill:#4B6E64;" d="M506.314,40.973c-0.395,2.596-2.772,0.253-3.378-1.683c2.233-0.784,11.077-3.281,5.07-6.735
		c-2.162,4.358-3.477,5.285-8.422,3.368c-1.416,1.951-2.23,4.52-1.699,8.433C501.99,45.437,511.086,43.203,506.314,40.973z"/>
	<path style="fill:#4B6E64;" d="M494.532,132.014c-6.542-0.478-12.317-0.209-15.158,2.99v3.602
		C487.26,138.037,490.359,138.694,494.532,132.014z"/>
	<path style="fill:#4B6E64;" d="M464.173,236.539c4.2,5.997,5.733,9.191,8.437,13.488c4.531-4.12,5.906-5.16,10.121-11.804
		c-4.735,0.885-8.776,2.486-13.504,3.367C472.346,238.638,469.434,235.73,464.173,236.539z"/>
	<path style="fill:#4B6E64;" d="M337.74,93.236C344.746,94.848,338.068,88.185,337.74,93.236L337.74,93.236z"/>
	<path style="fill:#4B6E64;" d="M361.33,280.365c-2.98,0.388-8.421-1.69-6.738,3.371h0.136
		C357.798,283.47,360.242,282.6,361.33,280.365z"/>
	<path style="fill:#4B6E64;" d="M356.279,108.423c2.9,0.068,4.317-1.3,5.051-3.383C358.441,104.95,357.017,106.329,356.279,108.423z
		"/>
	<path style="fill:#4B6E64;" d="M356.279,229.786C365.217,231.616,358.257,224.678,356.279,229.786L356.279,229.786z"/>
	<path style="fill:#4B6E64;" d="M464.173,250.028C469.299,254.639,459.566,244.898,464.173,250.028L464.173,250.028z"/>
	<path style="fill:#4B6E64;" d="M465.878,155.616c-8.143,2.425-4.418,1.375-10.128,6.754c3.928,0,7.861,0,11.79,0
		C467.26,159.831,468.15,156.136,465.878,155.616z"/>
	<path style="fill:#4B6E64;" d="M462.492,37.602c1.118,0,2.241,0,3.386,0c0-1.122,0-2.241,0-3.363c-1.145,0-2.267,0-3.386,0
		C462.492,35.361,462.492,36.479,462.492,37.602z"/>
	<path style="fill:#4B6E64;" d="M376.518,250.028C387.682,248.845,380.462,241.636,376.518,250.028L376.518,250.028z"/>
	<rect x="1.189" y="351.056" style="fill:#C4C4C4;" width="510.811" height="23.991"/>
	<rect x="1.189" y="319.65" style="fill:#A66848;" width="510.811" height="9.792"/>
	<rect x="1.189" y="329.442" style="fill:#A66848;" width="510.811" height="21.613"/>
	<path style="fill:#A66848;" d="M512,305.451v14.199H1.189v-13.639h277.263c1.399,2.238,3.287,3.637,5.386,3.637h84.634
		c2.098,0,3.987-1.399,5.386-3.637h13.429c1.399,2.238,3.288,3.637,5.386,3.637h84.634c2.098,0,3.987-1.399,5.386-3.637h28.118
		v-0.56H512z"/>
	<path style="opacity:0.1;fill:#FFFFFF;" d="M512,305.451v14.199H1.189v-13.639h277.263c1.399,2.238,3.287,3.637,5.386,3.637h84.634
		c2.098,0,3.987-1.399,5.386-3.637h13.429c1.399,2.238,3.288,3.637,5.386,3.637h84.634c2.098,0,3.987-1.399,5.386-3.637h28.118
		v-0.56H512z"/>
	<path style="fill:#A66848;" d="M482.712,306h28.098v-0.577h-27.768C482.935,305.619,482.827,305.815,482.712,306z"/>
	<path style="opacity:0.1;fill:#FFFFFF;" d="M482.712,306h28.098v-0.577h-27.768C482.935,305.619,482.827,305.815,482.712,306z"/>
	<path style="fill:#A66848;" d="M278.116,305.423H1.199V306h277.247C278.331,305.815,278.223,305.619,278.116,305.423z"/>
	<path style="opacity:0.1;fill:#FFFFFF;" d="M278.116,305.423H1.199V306h277.247C278.331,305.815,278.223,305.619,278.116,305.423z"
		/>
	<path style="fill:#A66848;" d="M374.212,305.423c-0.108,0.196-0.215,0.392-0.33,0.577h13.393c-0.115-0.185-0.222-0.381-0.33-0.577
		H374.212z"/>
	<path style="opacity:0.1;fill:#FFFFFF;" d="M374.212,305.423c-0.108,0.196-0.215,0.392-0.33,0.577h13.393
		c-0.115-0.185-0.222-0.381-0.33-0.577H374.212z"/>
	<path style="fill:#FFFFFF;" d="M256.82,182.597C252.213,187.719,261.95,177.987,256.82,182.597L256.82,182.597z"/>
	<path style="fill:#FFFFFF;" d="M327.607,152.234c-2.154-0.072-2.316-2.154-5.051-1.684c-0.723,3.224-3.619,4.241-3.352,8.438
		C324.684,159.428,327.298,156.979,327.607,152.234z"/>
	<path style="fill:#FFFFFF;" d="M248.39,184.277c-1.322-0.369-1.97-1.405-1.688-3.367c-0.363,0-0.729,0-1.093,0v5.838
		C246.771,186.382,247.791,185.585,248.39,184.277z"/>
	<path style="fill:#FFFFFF;" d="M403.491,219.684c-1.206-4.676-4.641-4.794-7.745-2.997c2.036,1.232,4.193,2.208,6.47,2.935
		C402.602,219.605,403.016,219.614,403.491,219.684z"/>
	<path style="fill:#FFFFFF;" d="M134.046,141.762v-1.526C126.362,139.256,130.532,143.947,134.046,141.762z"/>
	<path style="fill:#FFFFFF;" d="M79.809,132.014C86.795,133.622,80.136,126.963,79.809,132.014L79.809,132.014z"/>
	<path style="fill:#FFFFFF;" d="M132.27,146.209h1.776v-0.822C133.382,145.123,132.632,145.247,132.27,146.209z"/>
	<path style="fill:#FFFFFF;" d="M121.95,226.434c0,1.107,0,2.233,0,3.352c0.46,0.345,0.875,0.576,1.267,0.756h2.443
		C126.799,229.519,125.869,226.692,121.95,226.434z"/>
	<path style="fill:#FFFFFF;" d="M74.475,128.426h-3.011c-0.03,0.076-0.066,0.147-0.093,0.225
		C72.415,128.585,73.537,128.597,74.475,128.426z"/>
	<path style="fill:#FFFFFF;" d="M64.636,197.78c0-1.718,0-3.386,0-5.07c-2.14,0.063-3.652,0.481-4.581,1.047v2.958
		C60.984,197.285,62.497,197.709,64.636,197.78z"/>
	<path style="fill:#FFFFFF;" d="M454.059,93.236c2.892,0.643,6.362-1.556,7.532-3.689c-0.194-0.004-0.383-0.021-0.579-0.021
		c-1.647,0-3.228,0.168-4.741,0.471C455.182,90.724,454.279,91.637,454.059,93.236z"/>
	<path style="fill:#FFFFFF;" d="M479.374,138.606v-3.602c-0.856,0.964-1.456,2.183-1.717,3.741
		C478.255,138.691,478.825,138.646,479.374,138.606z"/>
	<g style="opacity:0.9;">
		<path style="fill:#FFFFFF;" d="M360.988,214.522v-41.338c0-4.056-0.629-7.903-1.958-11.331c-1.329-3.497-3.637-6.785-6.995-9.862
			c-1.119-0.979-2.378-1.889-3.707-2.658c-0.35,0.21-0.629,0.28-1.049,0.28c-0.28,0-0.56-0.07-0.84-0.14c0-0.42,0-0.77,0.07-1.049
			c-1.049-0.49-2.098-0.909-3.217-1.329c-2.588-0.839-5.386-1.329-8.254-1.609c-0.909,0-1.889-0.07-2.868-0.07h-0.35
			c-1.119,0-2.238,0-3.288,0.14c-0.979,0.07-1.888,0.14-2.798,0.28c-2.658,0.28-5.176,0.909-7.484,1.749
			c-3.707,1.469-7.274,3.777-10.632,6.924c-0.14,0.07-0.28,0.21-0.42,0.35c-2.588-3.287-5.736-5.666-9.372-7.204
			c-1.889-0.839-3.987-1.399-6.225-1.819c-0.839-0.07-1.679-0.21-2.518-0.28c-1.049-0.07-2.168-0.14-3.288-0.14h-0.35
			c-0.769,0-1.609,0-2.378,0.14c-0.629,0-1.329,0.07-1.958,0.21c-2.308,0.21-4.547,0.769-6.715,1.609
			c-3.287,1.259-6.155,2.938-8.743,5.176c-0.21,0.14-0.49,0.35-0.699,0.559v-5.736c-0.07-0.07-0.14-0.14-0.14-0.21
			c0-0.21,0.07-0.35,0.14-0.49v-0.42h-20.074v74.702h0.699c0-0.07,0-0.14,0.07-0.21c0.07-0.49,0.21-0.909,0.35-1.329
			c0.63,0.35,1.119,0.909,1.469,1.539h17.976v-45.184c0-2.588,0.42-4.687,1.259-6.435c0.839-1.679,1.889-3.078,3.218-4.126
			c1.329-1.049,2.798-1.819,4.406-2.308c1.609-0.49,3.218-0.699,4.826-0.699h0.7c1.329,0.07,2.728,0.28,4.127,0.699
			c1.609,0.49,3.078,1.259,4.407,2.308c1.259,1.049,2.308,2.448,3.148,4.126c0.769,1.749,1.189,3.847,1.189,6.435v45.184h11.191
			c-0.07-0.28,0-0.629,0.28-0.979c1.609-0.35,1.749,0.909,3.008,0.909c0.07,0,0.07,0.07,0.07,0.07h5.945v-45.605
			c0-2.378,0.42-4.406,1.259-6.155s1.888-3.078,3.217-4.057c1.329-1.049,2.798-1.749,4.407-2.238
			c1.679-0.49,3.288-0.699,4.826-0.699h0.7c1.328,0.07,2.727,0.28,4.126,0.699c1.609,0.49,3.078,1.259,4.407,2.308
			c1.329,1.049,2.378,2.448,3.148,4.126c0.14,0.21,0.21,0.49,0.28,0.7c0.56,0.699,0.909,1.469,0.909,2.168
			c-0.07,0-0.21-0.07-0.35-0.07c0.21,1.049,0.35,2.308,0.35,3.637v45.184h20.494v-2.588c-1.469-0.699-3.567-0.839-2.798-3.777
			C359.169,214.522,360.078,214.522,360.988,214.522z M247.397,215.851c-0.909-0.49-1.259-1.539-1.469-4.337
			c4.547-0.839,5.666,1.749,6.155,4.896C249.775,216.131,248.306,216.271,247.397,215.851z M252.992,203.611
			c0.21,0,0.839-0.21,1.049-0.07C259.287,208.577,246.907,201.372,252.992,203.611z M256.909,179.829c0-1.679-0.07-3.287-0.07-4.966
			C259.567,175.213,261.665,180.109,256.909,179.829z M255.65,154.159c3.288-1.259,0.839,3.218,4.127,1.889
			C259.147,159.545,255.51,157.027,255.65,154.159z M300.066,216.061c2.168-0.49,1.958,1.399,2.028,2.938
			C300.835,218.579,299.996,217.74,300.066,216.061z M303.633,155.698c-0.979,0-0.769-1.189-1.049-1.958
			c-4.127,1.119-2.658,5.316-5.036,6.015c-0.07-2.448-0.839-4.616-0.839-6.435c0-1.329,0.42-2.448,1.819-3.497
			c1.539,1.819,5.176,1.539,5.176,4.896C303.703,155.069,303.703,155.348,303.633,155.698z M334.269,154.509h2.029v1.959h-2.029
			V154.509z M307.759,161.644C310.277,164.931,304.332,159.265,307.759,161.644L307.759,161.644z M320.07,162.553
			c-0.839-0.21-1.049-1.049-2.098-0.979c0.21-0.839,1.049-1.049,0.979-2.028c0.839,0.21,1.049,0.979,2.099,0.979
			C320.839,161.363,320,161.504,320.07,162.553z M343.152,208.787h-0.28c-0.14-2.378-0.07-1.609-0.21-3.917
			c1.959-0.28,2.238,1.119,4.266,0.909C346.089,207.178,345.46,208.787,343.152,208.787z M349.657,168.219
			C346.579,171.855,346.229,165.211,349.657,168.219L349.657,168.219z"/>
		<path style="fill:#FFFFFF;" d="M429.045,199.204c-2.169,2.098-4.197,3.567-6.225,4.477c-1.819,0.839-3.917,1.259-6.365,1.399
			h-0.699c-0.49,0-0.909,0-1.329-0.07c-4.267-0.28-7.694-1.819-10.352-4.826c-3.078-3.427-4.547-9.023-4.547-16.647
			c0-3.987,0.35-7.275,1.049-9.863c0.769-2.588,1.958-4.826,3.497-6.645c2.658-2.938,6.085-4.477,10.352-4.757
			c0.42-0.07,0.839-0.07,1.329-0.07h0.35c0.63,0,1.259,0,1.889,0.07c1.819,0.21,3.427,0.63,4.826,1.259
			c2.028,0.909,4.056,2.378,6.225,4.546l0.35-0.35l13.499-12.311c-3.707-3.427-7.694-5.945-12.1-7.624
			c-4.127-1.539-8.953-2.308-14.339-2.378h-0.699c-0.839,0-1.749,0-2.588,0.07c-1.539,0.14-3.078,0.35-4.686,0.56
			c-1.819,0.21-3.637,0.559-5.456,1.049c-4.337,1.189-8.254,3.148-11.821,6.015c-3.497,2.868-6.435,6.785-8.743,11.681
			c-2.308,4.966-3.427,11.191-3.427,18.745c0,7.554,1.119,13.779,3.427,18.745c2.308,4.896,5.246,8.813,8.743,11.751
			c1.329,1.049,2.728,2.028,4.127,2.938c2.028,1.119,4.127,2.029,6.295,2.728h0.07c0.49,0.14,0.909,0.28,1.329,0.42
			c3.497,0.909,6.854,1.469,10.142,1.609c0.839,0.14,1.749,0.14,2.588,0.14h0.699c5.386-0.07,10.212-0.979,14.339-2.518
			c4.406-1.679,8.393-4.267,12.1-7.694l-13.499-12.171L429.045,199.204z M397.639,164.861
			C394.492,162.693,398.758,158.496,397.639,164.861L397.639,164.861z M389.666,192.559
			C392.743,192.769,388.756,196.686,389.666,192.559L389.666,192.559z M390.505,172.835
			C393.932,174.234,386.588,175.283,390.505,172.835L390.505,172.835z"/>
		<path style="fill:#FFFFFF;" d="M88.061,128.419v0.42c-0.28-0.07-0.56-0.21-0.7-0.42H59.313v102.12h63.231v-3.148
			c2.238-0.21,3.287,1.889,2.518,3.148h8.254v-17.766h-0.699c-0.28,0.56-1.049,0.909-1.119,0H81.276v-12.59
			c-2.728,0-3.218-2.099-2.868-5.036c1.469-0.14,2.308,0.42,2.868,1.259v-8.463h44.346v-17.766H81.276v-9.093
			c-0.909,0.21-1.609,0-3.148-0.56c-0.49-2.028,0.63-2.588,0.979-3.917c0.769,0.35,1.469,0.839,2.168,1.329v-11.751h15.948
			c-0.49-1.259-0.7-2.938-0.909-4.546c1.049,0,2.098-0.07,3.078-0.07c0.909,0.839,1.259,2.938,1.049,4.616h32.874v-17.766H88.061z
			 M109.255,223.545c1.819-0.35,1.819,5.456-0.979,3.917C108.136,225.713,109.465,225.364,109.255,223.545z M104.219,229.491
			c-3.777,0-4.547-2.868-6.225-4.896c-0.21-0.07-0.35-0.14-0.42-0.21C97.993,224.384,104.708,226.553,104.219,229.491z
			 M73.932,152.69C77.08,153.81,72.883,157.936,73.932,152.69L73.932,152.69z M69.456,226.833c1.399-0.07,2.728-0.07,4.057-0.07
			C74.422,230.54,68.686,230.61,69.456,226.833z M75.541,218.859c-2.448,0-3.008,1.749-6.155,1.049
			c0.56-0.84,1.049-1.609,1.049-3.008c2.378,0.979,6.435,0.28,6.155,3.917C75.611,220.817,75.751,219.628,75.541,218.859z
			 M90.16,134.784c1.819,0.839,1.679,3.567,4.127,3.847C92.538,141.569,87.292,136.603,90.16,134.784z M119.816,145.346v-2.938
			h2.028C122.194,144.367,121.705,145.486,119.816,145.346z"/>
		<path style="fill:#FFFFFF;" d="M182.907,159.126c0.14,1.818-0.7,3.357-3.707,3.567c0.28-1.539,0.28-2.658,0.28-3.567h-25.11
			v17.486h3.917c-0.14-0.909-0.28-1.959-0.49-2.938c1.889-0.14,2.868,1.259,3.078,2.938h54.487v-17.486H182.907z M197.666,173.394
			c-4.057-0.699-6.295-3.148-6.225-7.834c2.938,0.769,4.127,3.287,7.204,3.847C197.805,170.317,197.526,171.646,197.666,173.394z
			 M204.8,170.387c0.84-1.469,1.469-3.148,3.987-3.008c0.909,1.119,1.399,2.658,1.119,4.966
			C206.758,173.045,207.877,169.617,204.8,170.387z"/>
		<path style="fill:#FFFFFF;" d="M211.515,190.251c0.21,1.329,0.28,2.588,0.56,3.777c-1.819,1.609-3.288-0.909-4.057-3.777h-53.648
			v17.486h60.992v-17.486H211.515z M191.65,192.21C190.601,196.406,186.334,192.28,191.65,192.21L191.65,192.21z M205.01,203.96
			C208.087,204.171,204.1,208.087,205.01,203.96L205.01,203.96z M203.891,191.16c2.728-0.35,2.658,2.029,3.078,3.917
			c0.21,0.14,0.35,0.28,0.42,0.42C206.688,195.147,203.681,192.699,203.891,191.16z"/>
		<path style="fill:#FFFFFF;" d="M460.94,130.448l8.743-9.163v-1.469c0.559-0.14,0.979-0.07,1.259,0.07l1.469-1.469
			c0.909-0.979,1.749-1.959,2.448-2.798c0.839-0.979,1.539-1.958,2.098-2.938c0.56-0.979,0.979-2.029,1.259-3.148
			c0.28-1.119,0.42-2.378,0.42-3.777c0-2.448-0.42-4.756-1.399-6.785c-0.909-2.028-2.238-3.777-3.847-5.176
			c-1.679-1.399-3.637-2.448-5.875-3.148c-1.679-0.559-3.428-0.909-5.316-1.049h-0.63c-0.07-0.07-0.14-0.07-0.21-0.07h-1.049
			c-1.259,0-2.518,0.07-3.707,0.28c-1.189,0.14-2.308,0.42-3.357,0.769c-2.238,0.7-4.197,1.819-5.875,3.218
			c-1.749,1.399-3.078,3.148-4.057,5.176c-0.979,2.029-1.469,4.337-1.469,6.855v2.238h14.129v-2.238c0-0.84,0.07-1.469,0.35-1.959
			c0.21-0.49,0.49-0.839,0.839-1.119c0.42-0.35,0.839-0.56,1.329-0.63c0.63-0.21,1.189-0.28,1.819-0.28h0.699
			c1.119,0.07,1.959,0.42,2.518,1.049c0.699,0.7,1.049,1.609,1.049,2.868c0,0.769-0.14,1.469-0.42,2.028
			c-0.35,0.63-0.909,1.399-1.749,2.308l-15.668,16.507c0,0.35-0.07,0.63-0.14,0.909c-0.28,1.399-1.189,2.518-3.078,3.287
			c-0.07,0.07-0.14,0.07-0.21,0.07c-0.14-0.07-0.21-0.21-0.35-0.28l-1.119,1.189v10.982h36.791v-12.311H460.94z M468.494,98.063
			c0.909,0.63,1.889,1.189,2.098,0c1.189,0.14,0.84,1.819,1.049,2.938c-3.847-2.238-0.07,1.749-2.028,3.008
			C467.305,103.869,469.123,99.812,468.494,98.063z"/>
	</g>
	<path style="fill:#F5B7BF;" d="M376.21,296.901c0-0.111-0.008-0.219-0.01-0.33c-0.004,0.643-0.033,1.261-0.1,1.874
		c-0.562-6.091-3.756-10.76-7.618-10.76h-15.571c0,0.371,0,0.746,0,1.116c-1.123,0-2.249,0-3.383,0c0-0.37,0-0.746,0-1.116h-65.688
		c-3.862,0-7.056,4.669-7.618,10.76c-0.065-0.597-0.091-1.199-0.097-1.823c-0.001,0.094-0.009,0.184-0.009,0.278
		c0,3.282,0.76,6.264,1.998,8.521h96.096C375.45,303.165,376.21,300.184,376.21,296.901z"/>
	<path style="fill:#F5B7BF;" d="M349.529,288.802c1.134,0,2.26,0,3.383,0c0-0.37,0-0.746,0-1.116h-3.383
		C349.529,288.057,349.529,288.432,349.529,288.802z"/>
	<path style="fill:#F5B7BF;" d="M283.839,309.628h84.65c2.1,0,4.001-1.386,5.393-3.628h-95.437
		C279.838,308.241,281.739,309.628,283.839,309.628z"/>
	<path style="fill:#F5B7BF;" d="M278.116,305.423c0.107,0.196,0.215,0.392,0.33,0.577h95.437c0.115-0.185,0.222-0.381,0.33-0.577
		H278.116z"/>
	<path style="fill:#587B78;" d="M283.839,284.175h84.65c4.197,0,7.604,5.522,7.711,12.396c0-0.038,0.006-0.072,0.006-0.109
		c0-7.021-3.458-12.726-7.723-12.726h-13.754c-0.045,0.004-0.087,0.011-0.132,0.014c-0.002-0.005-0.002-0.009-0.004-0.014h-70.751
		c-4.266,0-7.723,5.705-7.723,12.726c0,0.055,0.008,0.106,0.009,0.161C276.217,289.724,279.632,284.175,283.839,284.175z"/>
	<path style="opacity:0.5;fill:#FFFFFF;" d="M283.839,284.175h84.65c4.197,0,7.604,5.522,7.711,12.396
		c0-0.038,0.006-0.072,0.006-0.109c0-7.021-3.458-12.726-7.723-12.726h-13.754c-0.045,0.004-0.087,0.011-0.132,0.014
		c-0.002-0.005-0.002-0.009-0.004-0.014h-70.751c-4.266,0-7.723,5.705-7.723,12.726c0,0.055,0.008,0.106,0.009,0.161
		C276.217,289.724,279.632,284.175,283.839,284.175z"/>
	<path style="fill:#4B6E64;" d="M354.728,283.737h-0.136c0.002,0.005,0.002,0.009,0.004,0.014
		C354.641,283.747,354.683,283.741,354.728,283.737z"/>
	<path style="opacity:0.5;fill:#FFFFFF;" d="M354.728,283.737h-0.136c0.002,0.005,0.002,0.009,0.004,0.014
		C354.641,283.747,354.683,283.741,354.728,283.737z"/>
	<path style="fill:#F5B7BF;" d="M283.841,287.686h65.688c0-0.752,0-1.501,0-2.266c1.134,0,2.26,0,3.383,0c0,0.765,0,1.514,0,2.266
		h15.571c3.862,0,7.056,4.669,7.618,10.76c0.066-0.614,0.096-1.231,0.1-1.874c-0.107-6.875-3.514-12.396-7.711-12.396h-84.65
		c-4.207,0-7.622,5.549-7.713,12.448c0.005,0.624,0.032,1.226,0.097,1.823C276.785,292.355,279.979,287.686,283.841,287.686z"/>
	<path style="opacity:0.5;fill:#FFFFFF;" d="M283.841,287.686h65.688c0-0.752,0-1.501,0-2.266c1.134,0,2.26,0,3.383,0
		c0,0.765,0,1.514,0,2.266h15.571c3.862,0,7.056,4.669,7.618,10.76c0.066-0.614,0.096-1.231,0.1-1.874
		c-0.107-6.875-3.514-12.396-7.711-12.396h-84.65c-4.207,0-7.622,5.549-7.713,12.448c0.005,0.624,0.032,1.226,0.097,1.823
		C276.785,292.355,279.979,287.686,283.841,287.686z"/>
	<path style="fill:#F5B7BF;" d="M349.529,285.42c0,0.765,0,1.514,0,2.266h3.383c0-0.752,0-1.501,0-2.266
		C351.789,285.42,350.663,285.42,349.529,285.42z"/>
	<path style="opacity:0.5;fill:#FFFFFF;" d="M349.529,285.42c0,0.765,0,1.514,0,2.266h3.383c0-0.752,0-1.501,0-2.266
		C351.789,285.42,350.663,285.42,349.529,285.42z"/>
	<path style="fill:#F6F0CD;" d="M485.04,296.901c0-0.111-0.008-0.219-0.01-0.33c-0.004,0.643-0.033,1.261-0.1,1.874
		c-0.562-6.091-3.756-10.76-7.618-10.76h-84.642c-0.492,0-0.973,0.078-1.439,0.223c-1.027,1.143-4.299,4.304-1.237,0.894
		c0.35-0.315,0.618-0.551,0.839-0.741c-3,1.209-5.311,5.295-5.78,10.385c-0.065-0.597-0.092-1.199-0.097-1.823
		c-0.001,0.094-0.009,0.184-0.009,0.278c0,3.282,0.76,6.264,1.998,8.521h96.096C484.28,303.165,485.04,300.184,485.04,296.901z"/>
	<path style="fill:#F6F0CD;" d="M389.995,288.802c-3.062,3.41,0.21,0.249,1.237-0.894c-0.135,0.042-0.266,0.099-0.398,0.152
		C390.613,288.251,390.344,288.487,389.995,288.802z"/>
	<path style="fill:#F6F0CD;" d="M392.669,309.628h84.65c2.1,0,4.001-1.386,5.394-3.628h-95.437
		C388.668,308.241,390.569,309.628,392.669,309.628z"/>
	<path style="fill:#F6F0CD;" d="M386.946,305.423c0.108,0.196,0.215,0.392,0.33,0.577h95.437c0.115-0.185,0.222-0.381,0.33-0.577
		H386.946z"/>
	<path style="fill:#587B78;" d="M392.669,284.175h84.65c4.197,0,7.604,5.522,7.712,12.396c0-0.038,0.006-0.072,0.006-0.109
		c0-7.021-3.458-12.726-7.723-12.726h-84.642c-4.266,0-7.723,5.705-7.723,12.726c0,0.055,0.008,0.106,0.009,0.161
		C385.047,289.724,388.462,284.175,392.669,284.175z"/>
	<path style="opacity:0.5;fill:#FFFFFF;" d="M392.669,284.175h84.65c4.197,0,7.604,5.522,7.712,12.396
		c0-0.038,0.006-0.072,0.006-0.109c0-7.021-3.458-12.726-7.723-12.726h-84.642c-4.266,0-7.723,5.705-7.723,12.726
		c0,0.055,0.008,0.106,0.009,0.161C385.047,289.724,388.462,284.175,392.669,284.175z"/>
	<path style="fill:#F6F0CD;" d="M390.833,288.061c0.86-0.742,0.809-0.609,0.398-0.152c0.466-0.145,0.947-0.223,1.439-0.223h84.642
		c3.862,0,7.056,4.669,7.618,10.76c0.066-0.614,0.096-1.231,0.1-1.874c-0.107-6.875-3.514-12.396-7.712-12.396h-84.65
		c-4.207,0-7.622,5.549-7.713,12.448c0.005,0.624,0.032,1.226,0.097,1.823C385.522,293.356,387.833,289.27,390.833,288.061z"/>
	<path style="opacity:0.5;fill:#FFFFFF;" d="M390.833,288.061c0.86-0.742,0.809-0.609,0.398-0.152
		c0.466-0.145,0.947-0.223,1.439-0.223h84.642c3.862,0,7.056,4.669,7.618,10.76c0.066-0.614,0.096-1.231,0.1-1.874
		c-0.107-6.875-3.514-12.396-7.712-12.396h-84.65c-4.207,0-7.622,5.549-7.713,12.448c0.005,0.624,0.032,1.226,0.097,1.823
		C385.522,293.356,387.833,289.27,390.833,288.061z"/>
	<path style="fill:#F6F0CD;" d="M390.833,288.061c0.132-0.053,0.263-0.111,0.398-0.152
		C391.642,287.452,391.693,287.319,390.833,288.061z"/>
	<path style="opacity:0.5;fill:#FFFFFF;" d="M390.833,288.061c0.132-0.053,0.263-0.111,0.398-0.152
		C391.642,287.452,391.693,287.319,390.833,288.061z"/>
</g>
</svg>