<?xml version="1.0" encoding="iso-8859-1"?>

<!DOCTYPE svg PUBLIC "-//W3C//DTD SVG 1.1//EN" "http://www.w3.org/Graphics/SVG/1.1/DTD/svg11.dtd">
<!-- Uploaded to: SVG Repo, www.svgrepo.com, Generator: SVG Repo Mixer Tools -->
<svg height="800px" width="800px" version="1.1" id="_x35_" xmlns="http://www.w3.org/2000/svg" xmlns:xlink="http://www.w3.org/1999/xlink" 
	 viewBox="0 0 512 512"  xml:space="preserve">
<g>
	<g>
		<g>
			<path style="fill:#F0D8A6;" d="M511.921,256.039C511.921,397.421,397.341,512,255.96,512c-49.241,0-95.311-13.956-134.403-38.061
				c-33.859-20.933-62.563-49.637-83.497-83.496C13.956,351.351,0,305.281,0,256.039c0-21.488,2.617-42.343,7.691-62.324
				C30.449,102.369,102.447,30.369,193.794,7.612C213.697,2.616,234.551,0,255.96,0c54.317,0,104.747,16.969,146.138,45.831
				c24.978,17.366,46.625,39.092,64.07,64.07C495.031,151.292,511.921,201.724,511.921,256.039z"/>
		</g>
		<g>
			<path style="fill:#C4BD9A;" d="M282.92,31.242v32.034l-24.898-32.034h-10.943v52.333h12.212V51.462l24.898,32.114h10.943V31.242
				H282.92z"/>
		</g>
		<g>
			<path style="fill:#C4BD9A;" d="M292.039,455.543c-0.714-1.824-1.982-3.331-3.648-4.599c-1.348-1.11-2.934-1.982-4.758-2.617
				c-1.824-0.634-4.202-1.109-7.057-1.427l-7.374-0.951c-1.269-0.159-2.379-0.396-3.331-0.713c-0.872-0.318-1.665-0.794-2.299-1.269
				c-0.634-0.475-1.031-1.11-1.348-1.745c-0.238-0.555-0.397-1.268-0.397-1.903c0-1.824,0.793-3.33,2.3-4.599
				c1.586-1.269,3.965-1.903,7.215-1.903c1.982,0,4.124,0.159,6.423,0.634c2.221,0.397,4.282,1.348,6.185,2.935l7.691-6.344
				c-2.696-2.141-5.629-3.727-8.801-4.6c-3.172-0.951-6.898-1.347-11.18-1.347c-3.331,0-6.344,0.318-9.04,1.11
				c-2.617,0.793-4.916,1.824-6.74,3.251c-1.824,1.347-3.251,3.012-4.282,4.915c-0.951,1.903-1.427,3.965-1.427,6.264
				c0,4.441,1.427,7.771,4.361,10.15c1.427,1.11,3.093,1.982,4.995,2.697c1.903,0.712,4.203,1.268,6.978,1.586l7.374,0.951
				c1.586,0.158,2.776,0.396,3.489,0.634c0.793,0.238,1.427,0.635,2.062,1.11c1.348,1.031,1.982,2.458,1.982,4.203
				c0,2.14-0.952,3.727-2.775,4.837c-1.903,1.11-4.599,1.665-8.247,1.665c-2.854,0-5.551-0.318-8.088-0.952
				c-2.538-0.634-4.837-1.824-6.74-3.41l-7.85,6.503c3.013,2.538,6.343,4.282,9.991,5.312c3.727,0.953,7.85,1.507,12.608,1.507
				c3.172,0,6.185-0.396,9.04-1.11c2.776-0.634,5.234-1.665,7.295-3.012c2.062-1.349,3.648-2.935,4.758-4.838
				c1.189-1.982,1.744-4.203,1.744-6.66C293.149,459.429,292.832,457.367,292.039,455.543z"/>
		</g>
		<g>
			<path style="fill:#C4BD9A;" d="M481.076,243.511v-9.515h-43.453v54.951h43.453v-9.595h-30.528V266.03h26.008v-9.594h-26.008
				v-12.925H481.076z"/>
		</g>
		<g>
			<path style="fill:#C4BD9A;" d="M81.99,233.996l-9.515,33.462l-11.101-33.462h-8.881l-11.101,33.462l-9.436-33.462h-12.37
				l16.255,53.047h9.912l11.181-32.193l11.18,32.193h9.912l16.334-53.047H81.99z"/>
		</g>
		<path style="opacity:0.07;fill:#040000;" d="M416.086,104.694l-167.893,97.648l-27.637,16.074c-0.74,0.74-1.386,1.537-2.081,2.304
			l-0.112-0.111l-0.386,0.663c-5.611,6.342-9.712,13.536-12.309,21.165L104.641,416.139c-6.404,11.011-2.637,14.779,8.375,8.375
			l173.707-101.02c7.629-2.598,14.824-6.698,21.167-12.31l0.663-0.385l-0.112-0.112c0.768-0.695,1.564-1.34,2.305-2.081
			l16.074-27.637l97.642-167.899C430.865,102.057,427.098,98.29,416.086,104.694z"/>
		<g>
			<g>
				<path style="fill:#E9E8E8;" d="M299.962,302.207L104.426,415.923c-11.012,6.404-14.78,2.637-8.375-8.375l113.721-195.53
					L299.962,302.207z"/>
				<path style="fill:#73C5B8;" d="M318.228,272.377l97.643-167.898c6.404-11.012,2.637-14.78-8.375-8.375l-167.893,97.648
					l-27.637,16.074c-24.624,24.624-24.4,64.78,0.502,89.682c24.907,24.908,65.064,25.131,89.688,0.508L318.228,272.377z"/>
			</g>
			<path style="opacity:0.5;fill:#040000;" d="M264.614,269.342c-6.066,6.066-15.904,6.066-21.97,0
				c-0.055-0.055-0.109-0.109-0.158-0.169c-0.322-0.322-0.622-0.666-0.912-1.01c-0.005-0.016-0.011-0.022-0.022-0.033
				c-4.957-6.104-4.592-15.085,1.087-20.764c1.097-1.097,2.31-1.993,3.609-2.692c1.288-0.699,2.653-1.201,4.057-1.501
				c5.001-1.092,10.428,0.306,14.315,4.193C270.685,253.432,270.685,263.27,264.614,269.342z"/>
		</g>
	</g>
	<path style="opacity:0.07;fill:#040000;" d="M466.168,109.901c-17.445-24.978-39.092-46.704-64.07-64.07
		C360.708,16.969,310.277,0,255.961,0v512c141.381,0,255.96-114.579,255.96-255.961
		C511.921,201.724,495.031,151.292,466.168,109.901z"/>
</g>
</svg>