<?xml version="1.0" encoding="iso-8859-1"?>

<!DOCTYPE svg PUBLIC "-//W3C//DTD SVG 1.1//EN" "http://www.w3.org/Graphics/SVG/1.1/DTD/svg11.dtd">
<!-- Uploaded to: SVG Repo, www.svgrepo.com, Generator: SVG Repo Mixer Tools -->
<svg height="800px" width="800px" version="1.1" id="_x35_" xmlns="http://www.w3.org/2000/svg" xmlns:xlink="http://www.w3.org/1999/xlink" 
	 viewBox="0 0 512 512"  xml:space="preserve">
<g>
	<path style="fill:#A9BFC6;" d="M376.907,43.361v210.126c0,60.039-33.357,56.708-56.708,56.708c-23.345,0-86.728,0-86.728,0
		s-66.691,0-100.047,0c-33.356,0-30.019,36.694-30.019,46.698v12.053c0,8.892,7.202,17.79,16.523,17.79c2.485,0,3.316,0,3.316,0
		c16.002-0.169,16.002-6.624,16.002-16.502c0-10.011,0-20.008,0-20.008s23.352,0,40.03,0c16.685,0,26.69-16.685,57.525-16.685
		c0,0,0,26.682,0,64.227c0,37.517-37.51,67.536-67.529,67.536H65.043c-14.925,0-28.935-5.583-40.101-14.629
		c-4.041-3.267-7.709-7.005-10.912-11.103C5.287,428.427,0,414.671,0,400.26V290.181c0-30.019,6.667-53.371,16.677-80.04
		C26.682,183.459,66.712,86.72,76.716,63.375C86.734,40.023,110.072,0,156.77,0c0,0,126.736,0,166.766,0
		C363.559,0,376.907,23.352,376.907,43.361z"/>
	<g>
		<path style="fill:#BAD0D5;" d="M37.65,328.007c0,4.288-3.499,7.787-7.786,7.787H0v-15.566h29.864
			C34.152,320.227,37.65,323.712,37.65,328.007z"/>
		<path style="fill:#BAD0D5;" d="M37.65,383.603c0,4.295-3.499,7.779-7.786,7.779H0v-15.566h29.864
			C34.152,375.817,37.65,379.315,37.65,383.603z"/>
		<path style="fill:#BAD0D5;" d="M92.134,444.754v20.55H76.561v-20.55c0-4.287,3.492-7.779,7.786-7.779
			C88.635,436.974,92.134,440.466,92.134,444.754z"/>
		<path style="fill:#BAD0D5;" d="M152.173,444.754v20.55h-15.566v-20.55c0-4.287,3.492-7.779,7.779-7.779
			C148.68,436.974,152.173,440.466,152.173,444.754z"/>
		<path style="fill:#BAD0D5;" d="M39.537,436.087l-14.594,14.588c-4.041-3.267-7.709-7.005-10.912-11.103l14.503-14.495
			c3.041-3.055,7.955-3.055,11.003,0C42.578,428.124,42.578,433.032,39.537,436.087z"/>
	</g>
	<path style="fill:#75949B;" d="M173.299,167.893c0,9.215-7.469,16.685-16.685,16.685l0,0c-9.209,0-16.686-7.469-16.686-16.685l0,0
		c0-9.209,7.477-16.685,16.686-16.685l0,0C165.83,151.208,173.299,158.684,173.299,167.893L173.299,167.893z"/>
	<g>
		<path style="fill:#86A2A8;" d="M512,72.697V28.978C512,12.975,499.019,0,483.016,0H284.485C268.482,0,255.5,12.975,255.5,28.978
			v300.219l95.14-95.141L512,72.697z"/>
		<path style="fill:#77919B;" d="M350.64,234.056l-95.14,95.141v28.738c0,16.002,12.981,28.984,28.984,28.984h198.531
			c16.003,0,28.984-12.982,28.984-28.984V72.697L350.64,234.056z"/>
	</g>
</g>
</svg>