<?xml version="1.0" encoding="iso-8859-1"?>

<!DOCTYPE svg PUBLIC "-//W3C//DTD SVG 1.1//EN" "http://www.w3.org/Graphics/SVG/1.1/DTD/svg11.dtd">
<!-- Uploaded to: SVG Repo, www.svgrepo.com, Generator: SVG Repo Mixer Tools -->
<svg height="800px" width="800px" version="1.1" id="_x35_" xmlns="http://www.w3.org/2000/svg" xmlns:xlink="http://www.w3.org/1999/xlink" 
	 viewBox="0 0 512 512"  xml:space="preserve">
<g>
	<path style="fill:#91CFBD;" d="M334.992,18.045c-15.447,11.649-39.757,36.592-56.217,54.065h-0.063
		c-1.709,1.836-3.355,3.545-4.875,5.191c-7.724,8.293-12.915,13.991-12.915,13.991l-91.922-2.406c0,0,10.066-4.621,25.386-11.459
		c3.672-1.709,7.723-3.482,11.965-5.381C248.895,52.991,315.051,23.933,334.992,18.045z"/>
	<path style="fill:#91CFBD;" d="M510.29,0.319c-0.316,0.57-0.633,1.203-0.886,1.836c-0.38,0.696-0.697,1.393-1.013,2.152
		c-9.496,19.815-27.349,56.09-38.491,78.628c-0.253,0.507-0.506,0.95-0.76,1.456c-5.318,10.889-8.99,18.233-8.99,18.233
		c-10.636,0-28.552-2.089-47.29-4.748c-9.686-1.393-19.625-2.976-28.868-4.495c-16.967-2.722-31.78-5.444-39.251-6.711
		c4.938,0.127,14.307-1.266,31.02-7.787c1.203-0.443,2.406-0.95,3.672-1.52c3.672-1.709,7.47-3.735,11.269-6.141
		c26.715-16.65,55.52-47.924,63.18-55.964c8.673-9.053,17.663-16.017,50.139-15.193c1.076,0.063,2.279,0.063,3.419,0.126
		C508.391,0.192,509.341,0.256,510.29,0.319z"/>
	<path style="fill:#FFFFFF;" d="M476.928,91.482c0,3.419-3.229,10.825-7.787,19.562c-1.076,2.153-2.279,4.431-3.545,6.71
		c-0.949,1.773-1.962,3.609-2.975,5.445c-6.394,11.269-13.295,22.474-17.283,28.805c-1.962,3.229-3.228,5.191-3.228,5.191
		c-16.017,6.267-32.413,11.395-49.697,12.408c-14.94,0.95-30.007,0.633-45.011,0.76c-6.267,0.063-12.598,0.063-18.929,0.063
		c-10.952,0.063-21.904,0.063-32.857,0.063c-8.293,0-18.676,0-30.134-0.063c-17.663,0-38.111-0.063-58.179-0.126
		c-5.887,0-11.712,0-17.473-0.063h-11.015c-17.473-0.063-33.426-0.063-45.265-0.063c-27.665,0-10.762,0.443-38.427,0.063
		c-13.358-0.19-55.014-1.836-73.183-3.165c-4.622-0.316-7.66-0.697-8.42-0.95c-5.381-1.963-11.395-6.141-12.978-11.965
		c-0.19-0.696-0.38-1.393-0.443-2.152c-0.253-2.026,0-4.115,0.633-6.141c0.76-3.102,2.342-6.204,3.988-8.99
		c0.886-1.456,1.773-2.786,2.596-4.052c3.102-4.621,6.52-9.876,10.256-15.067c4.874-6.9,10.382-13.738,16.523-19.055
		c3.545-3.039,7.217-5.571,11.205-7.28c7.787-3.419,16.523-4.875,24.816-6.204c12.091-1.963,24.247-3.165,36.465-4.178
		c43.365-3.609,53.241-3.609,87.807-3.609h17.916c15.194-0.063,37.668-0.126,61.535-0.126c35.262-0.063,73.563-0.063,95.974,0.063
		h9.623c13.738,0,27.538,0,41.15,1.203c13.737,1.266,36.592,1.583,48.556,5.825C473.889,86.037,476.928,88.316,476.928,91.482z"/>
	<path style="fill:#91CFBD;" d="M465.595,117.754c-0.949,1.773-1.962,3.609-2.975,5.445c-6.394,11.269-13.295,22.474-17.283,28.805
		H0.097c-0.253-2.026,0-4.115,0.633-6.141c0.76-3.102,2.342-6.204,3.988-8.99c0.886-1.456,1.773-2.786,2.596-4.052
		c3.102-4.621,6.52-9.876,10.256-15.067H465.595z"/>
	<path style="fill:#6B6C6B;" d="M80.624,98.699l-8.483,17.093l-0.95,1.962l-9.56,19.119H4.718c0.886-1.456,1.773-2.786,2.596-4.052
		c3.102-4.621,6.52-9.876,10.256-15.067c4.874-6.9,10.382-13.738,16.523-19.055H80.624z"/>
	<path style="fill:#84C5AF;" d="M142.488,150.719c0,0,154.443,46.722,250.33,75.409c-25.138-33.45-94.267-75.409-94.267-75.409
		H142.488z"/>
	<path style="fill:#84C5AF;" d="M401.909,117.929c0-5.645,0-8.154,6.763-8.154c6.763,0,91.868,1.882,97.691,2.509
		c5.824,0.627,5.636,5.645,5.636,5.645s-73.644,8.154-81.723,8.154C422.198,126.083,401.909,132.983,401.909,117.929z"/>
	<circle style="fill:#FFFFFF;" cx="129.552" cy="117.789" r="20.951"/>
	<circle style="fill:#FFFFFF;" cx="188.776" cy="117.789" r="20.951"/>
	<circle style="fill:#FFFFFF;" cx="248" cy="117.789" r="20.951"/>
	<circle style="fill:#FFFFFF;" cx="307.223" cy="117.789" r="20.951"/>
	<g>
		<path style="fill:#FFFFFF;" d="M268.866,151.575c-6.137-5.786-22.617-22.66-54.176-22.66c-7.265,0-17.452,1.841-24.853,4.898
			v51.217c7.401,3.058,17.588,4.899,24.853,4.899c31.559,0,48.039-16.875,54.176-22.661c0.306-0.613,0.6-3.924,0.491-7.847
			C269.466,155.499,269.173,152.188,268.866,151.575z"/>
		<path style="fill:#E0E0E0;" d="M182.079,138.601c-3.463,4.34-3.463,8.066-3.463,20.82c0,12.755,0,16.481,3.463,20.821
			c1.682,1.804,4.442,3.417,7.758,4.788v-51.217C186.521,135.184,183.761,136.797,182.079,138.601z"/>
	</g>
	<g>
		<circle style="fill:#F7C5C6;" cx="129.552" cy="117.789" r="18.061"/>
		<circle style="fill:#F7C5C6;" cx="188.776" cy="117.789" r="18.061"/>
		<circle style="fill:#F7C5C6;" cx="248" cy="117.789" r="18.061"/>
		<circle style="fill:#F7C5C6;" cx="307.223" cy="117.789" r="18.061"/>
	</g>
</g>
</svg>