<?xml version="1.0" encoding="iso-8859-1"?>

<!DOCTYPE svg PUBLIC "-//W3C//DTD SVG 1.1//EN" "http://www.w3.org/Graphics/SVG/1.1/DTD/svg11.dtd">
<!-- Uploaded to: SVG Repo, www.svgrepo.com, Generator: SVG Repo Mixer Tools -->
<svg height="800px" width="800px" version="1.1" id="_x35_" xmlns="http://www.w3.org/2000/svg" xmlns:xlink="http://www.w3.org/1999/xlink" 
	 viewBox="0 0 512 512"  xml:space="preserve">
<g>
	<path style="fill:#2E2E2E;" d="M435.816,466.482c0.03,9.738-6.023,18.463-15.158,21.858l-58.785,21.768
		c-2.598,0.961-5.308,1.452-8.048,1.452l-39.666,0.06L87.187,512c-2.733,0-5.472-0.462-8.041-1.423l-58.874-21.582
		c-9.135-3.365-15.239-12.068-15.239-21.806L4.512,157.876c0-1.779,0.194-3.507,0.581-5.174c1.064-4.735,3.559-8.919,7.027-12.06
		c4.132-3.752,9.604-6.053,15.62-6.053l286.419-0.491l98.324-0.164c5.822,0.111,11.13,2.382,15.15,6.023
		c3.499,3.149,6.016,7.303,7.088,12.038c0.38,1.668,0.603,3.387,0.603,5.166L435.816,466.482z"/>
	<path style="fill:#2E2E2E;" d="M439.561,119.602c0,5.39-1.809,10.341-4.899,14.309c-1.914,2.457-4.288,4.512-7.028,6.046
		c-3.335,1.884-7.191,2.956-11.301,2.956l-102.173,0.164l-290.737,0.461c-4.11,0-7.967-1.042-11.302-2.895
		c-2.732-1.504-5.144-3.559-7.057-6.023c-3.09-3.938-4.951-8.919-4.951-14.309L0,50.476c-0.022-9.247,5.449-17.622,13.929-21.337
		L74.985,2.404c2.956-1.28,6.097-1.965,9.299-1.965l116.542-0.194l37.641-0.052l75.692-0.134h8.018L355.002,0
		c3.201,0,6.35,0.656,9.306,1.914l61.137,26.541c8.48,3.693,13.982,12.031,14.004,21.308L439.561,119.602z"/>
	<polygon style="fill:#1B1C1C;" points="435.325,151.995 434.721,151.995 314.159,152.181 5.093,152.702 4.512,152.702 
		4.46,134.618 5.063,134.618 27.74,134.589 314.159,134.098 412.483,133.934 434.662,133.911 435.265,133.911 	"/>
	<g>
		<path style="fill:#EAD479;" d="M355.873,317.093h-13.677v0.23c-0.014,33.793-13.646,64.28-35.78,86.473
			c-22.149,22.171-52.621,35.862-86.428,35.929h0.023h-0.223c-33.8-0.015-64.286-13.654-86.48-35.78
			c-22.163-22.156-35.862-52.62-35.921-86.427v-0.208c0-33.792,13.647-64.279,35.773-86.472
			c22.156-22.163,52.62-35.854,86.427-35.921h0.075h0.022h0.112c33.792,0.008,64.279,13.646,86.465,35.773
			c22.171,22.156,35.869,52.62,35.936,86.427v-0.022H355.873l13.676-0.023c-0.059-41.267-16.878-78.737-43.954-105.74
			c-27.062-27.032-64.547-43.776-105.799-43.776l-0.35,0.008h0.097c-41.267,0.059-78.738,16.878-105.74,43.947
			c-27.032,27.055-43.783,64.547-43.776,105.799v0.261c0.06,41.259,16.885,78.729,43.962,105.732
			c27.055,27.032,64.54,43.784,105.8,43.776h0.223h0.32h-0.298c41.275-0.059,78.737-16.878,105.747-43.954
			c27.025-27.055,43.776-64.54,43.768-105.8v-0.23v-0.023L355.873,317.093z"/>
	</g>
	<g>
		<g>
			<g>
				<path style="fill:#EAD479;" d="M256.447,318.262c8.867,1.317,16.438,4.206,22.736,7.832c0.067,0.037,0.134,0.082,0.194,0.112
					c-1.854-4.013-3.477-8.368-4.631-12.961c-1.355-5.413-2.048-11.168-1.638-17.072l-38.006,22.03
					C242.882,317.19,250.006,317.301,256.447,318.262z"/>
				<path style="fill:#EAD479;" d="M288.638,391.899c-1.273,4.035-2.203,7.861-2.829,11.413
					c11.518-6.648,23.109-15.984,30.494-28.819c7.594-13.208,9.738-28.41,9.545-42.02c-8.271,7.341-17.161,18.374-24.799,31.671
					C295.54,373.718,291.363,383.263,288.638,391.899z"/>
				<path style="fill:#EAD479;" d="M287.224,327.277c1.906,3.633,3.968,6.924,5.926,9.745c0.172,0.186,0.358,0.38,0.529,0.559
					c2.739,2.933,4.906,5.837,6.536,8.48c0.149,0.156,0.283,0.305,0.409,0.431c0.447,0.484,0.722,1.065,0.826,1.675
					c0.134,0.231,0.268,0.477,0.38,0.7c0.178,0.343,0.32,0.64,0.469,0.953c2.718-3.961,5.524-7.638,8.368-11.018
					c-0.075-0.149-0.149-0.305-0.194-0.469c-0.715-2.308-1.884-5.755-3.052-9.924c-0.871-1.824-1.906-3.729-3.082-5.658
					c-3.484-5.711-8.145-11.569-12.88-16.215c-3.164-3.098-6.365-5.658-9.18-7.281c-0.96-0.543-1.846-0.953-2.672-1.273
					c-0.171,4.638,0.402,9.232,1.519,13.661C282.519,317.226,284.737,322.542,287.224,327.277z"/>
				<path style="fill:#EAD479;" d="M260.303,361.568c4.891,2.822,9.782,4.638,14.25,5.763c4.712,0.387,8.561,1.013,11.048,1.526
					c0.781,0.008,1.519,0,2.181-0.03c1.496-0.067,2.725-0.253,3.514-0.439c1.258-2.501,2.613-5.003,4.05-7.519
					c1.028-1.779,2.077-3.507,3.134-5.197l-0.93,0.156c-0.097-0.625-0.603-2.129-1.549-3.931c-0.313-0.603-0.692-1.251-1.094-1.928
					c-1.675-1.876-4.132-4.869-6.813-8.689c-3.223-3.32-7.266-6.655-12.187-9.492c-5.643-3.238-12.41-5.83-20.429-7.02
					c-6.849-1.02-14.622-0.998-23.399,0.536c3.156,9.12,7.274,16.386,11.874,22.149C249.017,353.781,254.66,358.323,260.303,361.568
					z"/>
				<path style="fill:#EAD479;" d="M279.079,403.602c0.387-2.442,0.909-4.988,1.579-7.616c-1.192,0.29-2.42,0.551-3.716,0.737
					c-0.863,0.119-1.742,0.223-2.642,0.305c-0.008,0-0.008,0-0.015,0.008c-4.266,1.117-9.135,2.628-14.123,4.749
					c-8.554,3.633-17.384,9.038-24.166,17.273c3.945,1.176,8.092-0.447,12.425-1.236c0,0,14.145-2.807,30.204-10.699
					C278.744,405.97,278.893,404.801,279.079,403.602z"/>
				<path style="fill:#EAD479;" d="M309.99,303.133c0.149,8.539,1.839,16.536,3.596,22.916c0.014,0.007,0.014,0.022,0.014,0.037
					c1.057,2.278,1.914,4.496,2.494,6.655c3.142-3.261,6.276-6.105,9.373-8.495c-1.385-17.219-5.844-30.204-5.844-30.204
					c-2.785-7.891-2.42-9.753-6.216-12.209C310.771,288.944,309.864,296.202,309.99,303.133z"/>
				<path style="fill:#EAD479;" d="M249.464,399.693c2.211-1.228,4.429-2.315,6.618-3.298c-3.946-0.551-7.854-1.333-11.54-2.345
					c-4.66-1.281-8.926-2.904-12.432-4.913c-2.018-1.169-3.782-2.479-5.219-4.013l0.03,20.943c0,3.498,1.348,6.79,3.611,9.306
					C236.048,408.538,242.711,403.468,249.464,399.693z"/>
				<path style="fill:#EAD479;" d="M243.686,369.899c4.557-1.317,9.128-2.099,13.542-2.523c-0.075-0.03-0.141-0.067-0.201-0.104
					c-6.305-3.618-12.611-8.718-18.203-15.716c-4.631-5.8-8.769-12.917-12.023-21.524l0.075,47.908
					C232.109,374.143,237.871,371.574,243.686,369.899z"/>
				<path style="fill:#EAD479;" d="M285.556,293.559c5.241,3.03,10.639,7.981,15.553,13.691c0.953,1.102,1.876,2.241,2.784,3.396
					c-1.027-9.529-0.633-20.362,3.321-31.046c-2.934-0.335-5.934,0.246-8.57,1.772l-17.503,10.148
					C282.615,292.018,284.089,292.718,285.556,293.559z"/>
				<path style="fill:#EAD479;" d="M273.145,390.529c0.008,0,0.022,0,0.03-0.008c3.976-1.028,7.378-1.734,9.738-2.271
					c1.369-4.154,3.052-8.464,5.018-12.857c-0.194,0.015-0.41,0.015-0.611,0.015c-0.589,0.231-1.229,0.283-1.884,0.134
					c-0.178-0.045-0.417-0.09-0.633-0.134c-1.675-0.053-3.477-0.186-5.419-0.447c-1.84-0.253-3.79-0.633-5.83-1.109
					c-1.214-0.104-2.464-0.179-3.774-0.239c-7.281-0.291-15.984,0.201-24.27,2.598c-4.393,1.266-8.658,3.075-12.582,5.561
					c0.708,0.551,1.496,1.109,2.457,1.653c4.221,2.449,10.698,4.541,17.577,5.815C259.841,390.514,267.159,391.013,273.145,390.529z
					"/>
			</g>
		</g>
		<g>
			<g>
				<path style="fill:#EAD479;" d="M200.803,287.566c-3.283-8.338-4.578-16.334-4.586-23.615c0-0.067,0-0.149,0-0.216
					c-2.554,3.611-5.502,7.192-8.912,10.505c-4.005,3.871-8.643,7.355-13.959,9.947l38.073,21.902
					C206.663,299.85,203.193,293.626,200.803,287.566z"/>
				<path style="fill:#EAD479;" d="M248.488,222.863c4.124-0.908,7.9-2.01,11.294-3.238c-11.524-6.663-25.403-12.031-40.195-12.009
					c-15.247,0.022-29.482,5.77-41.178,12.746c10.498,3.492,24.501,5.673,39.838,5.635
					C229.288,225.975,239.636,224.836,248.488,222.863z"/>
				<path style="fill:#EAD479;" d="M193.225,256.402c2.196-3.462,4.013-6.894,5.48-9.998c0.074-0.245,0.141-0.499,0.223-0.737
					c1.169-3.841,2.599-7.169,4.058-9.909c0.067-0.194,0.127-0.394,0.178-0.566c0.194-0.625,0.566-1.154,1.035-1.556
					c0.141-0.223,0.283-0.461,0.416-0.678c0.209-0.313,0.41-0.588,0.596-0.878c-4.788-0.38-9.381-0.961-13.729-1.734
					c-0.089,0.133-0.186,0.275-0.306,0.402c-1.645,1.772-4.05,4.496-7.072,7.602c-1.147,1.675-2.278,3.514-3.365,5.509
					c-3.194,5.866-5.941,12.827-7.594,19.26c-1.109,4.281-1.712,8.338-1.705,11.584c-0.008,1.102,0.089,2.07,0.223,2.956
					c4.095-2.174,7.794-4.973,11.078-8.152C186.867,265.5,190.358,260.921,193.225,256.402z"/>
				<path style="fill:#EAD479;" d="M236.382,262.581c-0.007-5.644-0.878-10.795-2.136-15.233c-2.018-4.265-3.396-7.914-4.199-10.326
					c-0.38-0.67-0.759-1.31-1.124-1.876c-0.797-1.258-1.586-2.233-2.137-2.814c-2.792,0.149-5.635,0.238-8.532,0.238
					c-2.055,0-4.072-0.044-6.082-0.111l0.625,0.73c-0.506,0.395-1.548,1.593-2.636,3.313c-0.365,0.566-0.745,1.214-1.117,1.898
					c-0.797,2.398-2.159,6.016-4.132,10.251c-1.258,4.445-2.129,9.619-2.122,15.292c0.015,6.514,1.154,13.676,4.132,21.21
					c2.546,6.44,6.447,13.17,12.165,19.99c6.321-7.297,10.556-14.488,13.237-21.352C235.281,276.243,236.39,269.088,236.382,262.581
					z"/>
				<path style="fill:#EAD479;" d="M263.393,225.305c-2.308,0.879-4.772,1.698-7.37,2.435c0.842,0.886,1.668,1.824,2.487,2.844
					c0.529,0.685,1.057,1.407,1.578,2.145c0.008,0,0.008,0.007,0.015,0.007c3.097,3.135,6.849,6.597,11.175,9.85
					c7.43,5.599,16.52,10.535,27.047,12.299c-0.953-4.005-4.429-6.79-7.274-10.155c0,0-9.507-10.84-24.374-20.801
					C265.619,224.404,264.524,224.865,263.393,225.305z"/>
				<path style="fill:#EAD479;" d="M160.936,248.764c7.318-4.408,13.401-9.865,18.039-14.577c0.015-0.008,0.022-0.015,0.03-0.023
					c1.436-2.055,2.94-3.915,4.518-5.494c-4.392-1.086-8.42-2.382-12.045-3.864c-14.22,9.798-23.236,20.161-23.236,20.161
					c-5.449,6.35-7.236,6.976-7.467,11.488C148.242,255.181,154.988,252.344,160.936,248.764z"/>
				<path style="fill:#EAD479;" d="M274.82,252.902c-2.173-1.303-4.221-2.68-6.171-4.095c1.496,3.693,2.777,7.49,3.752,11.175
					c1.206,4.675,1.943,9.186,1.951,13.229c0,2.331-0.253,4.504-0.856,6.522l18.114-10.498c3.03-1.757,5.204-4.556,6.254-7.78
					C289.189,260.095,281.469,256.864,274.82,252.902z"/>
				<path style="fill:#EAD479;" d="M251.905,272.803c-3.425-3.276-6.38-6.864-8.956-10.468c0,0.075,0.007,0.149,0.007,0.223
					c0.015,7.274-1.236,15.284-4.504,23.623c-2.703,6.924-6.805,14.048-12.634,21.181l41.453-24.032
					C261.375,280.702,256.253,276.995,251.905,272.803z"/>
				<path style="fill:#EAD479;" d="M164.867,274.717c0-6.061,1.586-13.208,4.057-20.318c0.492-1.377,1.012-2.747,1.564-4.102
					c-7.743,5.644-17.317,10.721-28.544,12.649c1.176,2.695,3.179,5.003,5.814,6.522l17.54,10.087
					C164.994,278.014,164.875,276.399,164.867,274.717z"/>
				<path style="fill:#EAD479;" d="M255.047,236.978c-0.008-0.015-0.015-0.023-0.023-0.023c-2.889-2.94-5.188-5.524-6.841-7.31
					c-4.288,0.893-8.852,1.593-13.647,2.092c0.12,0.164,0.231,0.35,0.328,0.521c0.477,0.395,0.856,0.923,1.057,1.571
					c0.052,0.164,0.126,0.402,0.194,0.611c0.797,1.474,1.578,3.104,2.323,4.913c0.707,1.728,1.362,3.604,1.95,5.606
					c0.521,1.102,1.079,2.219,1.69,3.388c3.387,6.447,8.16,13.743,14.383,19.714c3.298,3.179,6.991,5.956,11.101,8.123
					c0.134-0.887,0.216-1.862,0.216-2.956c0-4.877-1.414-11.54-3.76-18.121C261.695,248.503,258.449,241.914,255.047,236.978z"/>
			</g>
		</g>
		<g>
			<g>
				<path style="fill:#EAD479;" d="M202.046,351.101c-5.568,7.013-11.867,12.135-18.15,15.776c-0.067,0.037-0.134,0.067-0.201,0.104
					c4.4,0.409,8.993,1.176,13.549,2.479c5.361,1.526,10.699,3.804,15.605,7.117l-0.081-43.932
					C209.752,339.889,206.089,346.001,202.046,351.101z"/>
				<path style="fill:#EAD479;" d="M122.171,342.159c-2.851-3.112-5.696-5.837-8.458-8.16c-0.008,13.311,2.278,28.015,9.701,40.82
					c7.638,13.177,19.743,22.641,31.626,29.281c-2.219-10.839-7.341-24.054-15.038-37.313
					C134.47,357.22,128.305,348.837,122.171,342.159z"/>
				<path style="fill:#EAD479;" d="M178.841,373.25c-4.087-0.172-7.966-0.023-11.398,0.253c-0.253,0.052-0.499,0.127-0.752,0.178
					c-3.901,0.901-7.497,1.333-10.609,1.429c-0.201,0.053-0.402,0.097-0.573,0.126c-0.647,0.149-1.287,0.097-1.861-0.111
					c-0.261-0.008-0.544-0.015-0.811-0.023c-0.365-0.022-0.708-0.044-1.05-0.074c2.069,4.332,3.848,8.606,5.36,12.76
					c0.164,0.008,0.335,0.03,0.506,0.059c2.36,0.544,5.911,1.251,10.11,2.331c2.025,0.156,4.191,0.208,6.447,0.156
					c6.685-0.164,14.101-1.273,20.495-3.053c4.258-1.184,8.07-2.68,10.885-4.31c0.953-0.551,1.742-1.117,2.442-1.676
					c-3.924-2.464-8.204-4.258-12.597-5.516C189.897,374.195,184.194,373.465,178.841,373.25z"/>
				<path style="fill:#EAD479;" d="M162.611,332.787c-4.891,2.829-8.904,6.157-12.113,9.469c-2.695,3.886-5.166,6.887-6.842,8.793
					c-0.402,0.67-0.759,1.31-1.072,1.906c-0.685,1.317-1.139,2.494-1.362,3.253c1.534,2.353,3.015,4.765,4.474,7.281
					c1.028,1.772,1.995,3.543,2.941,5.316l0.32-0.893c0.588,0.223,2.144,0.536,4.184,0.625c0.678,0.03,1.422,0.03,2.204,0.015
					c2.478-0.506,6.29-1.147,10.936-1.549c4.489-1.139,9.41-2.962,14.31-5.815c5.635-3.268,11.264-7.832,16.303-14.174
					c4.303-5.427,8.175-12.173,11.227-20.541c-9.478-1.823-17.823-1.891-25.104-0.781C175,326.912,168.24,329.525,162.611,332.787z"
					/>
				<path style="fill:#EAD479;" d="M116.825,328.029c1.914,1.556,3.864,3.284,5.807,5.167c0.328-1.169,0.73-2.36,1.214-3.574
					c0.32-0.804,0.685-1.615,1.065-2.442c0-0.008,0.007-0.008,0.007-0.014c1.154-4.252,2.279-9.232,2.934-14.614
					c1.131-9.225,0.871-19.565-2.873-29.564c-2.985,2.829-3.663,7.236-5.152,11.384c0,0-4.631,13.654-5.822,31.507
					C114.934,326.563,115.872,327.27,116.825,328.029z"/>
				<path style="fill:#EAD479;" d="M188.371,405.031c-7.467-4.139-15.24-6.671-21.643-8.338c-0.008,0-0.022,0-0.03-0.008
					c-2.509-0.223-4.861-0.589-7.021-1.162c1.251,4.341,2.152,8.48,2.673,12.359c15.605,7.408,29.08,10.036,29.08,10.036
					c8.219,1.542,9.656,2.785,13.676,0.723C200.275,412.811,194.446,408.389,188.371,405.031z"/>
				<path style="fill:#EAD479;" d="M135.013,304.339c-0.037,2.531-0.209,4.996-0.462,7.386c2.457-3.149,5.093-6.142,7.81-8.837
					c3.44-3.388,6.983-6.269,10.476-8.301c2.017-1.169,4.034-2.032,6.074-2.517l-18.15-10.437c-3.023-1.742-6.544-2.234-9.865-1.526
					C134.06,288.288,135.125,296.605,135.013,304.339z"/>
				<path style="fill:#EAD479;" d="M163.705,314.234c-1.131,4.601-2.747,8.948-4.586,12.984c0.067-0.037,0.126-0.075,0.194-0.119
					c6.291-3.649,13.862-6.559,22.714-7.906c7.34-1.117,15.56-1.132,24.65,0.35l-41.536-23.891
					C165.82,302.076,165.164,308.36,163.705,314.234z"/>
				<path style="fill:#EAD479;" d="M208.881,388.661c-5.241,3.03-12.232,5.218-19.625,6.633c-1.429,0.261-2.881,0.499-4.333,0.7
					c8.756,3.879,17.95,9.633,25.231,18.403c1.742-2.367,2.74-5.263,2.732-8.308l-0.03-20.235
					C211.688,386.881,210.34,387.811,208.881,388.661z"/>
				<path style="fill:#EAD479;" d="M131.112,329.429c-0.007,0.008-0.007,0.023-0.007,0.023c-1.095,3.96-2.189,7.258-2.904,9.574
					c2.911,3.268,5.807,6.88,8.622,10.773c0.089-0.172,0.201-0.358,0.29-0.536c0.104-0.611,0.38-1.198,0.833-1.698
					c0.127-0.141,0.283-0.313,0.432-0.483c0.886-1.423,1.898-2.919,3.097-4.467c1.139-1.459,2.442-2.97,3.871-4.482
					c0.692-1.012,1.392-2.055,2.092-3.171c3.894-6.149,7.825-13.929,9.887-22.305c1.102-4.437,1.668-9.038,1.474-13.676
					c-0.826,0.335-1.712,0.737-2.658,1.303c-4.228,2.427-9.276,6.991-13.818,12.306
					C137.775,317.912,133.688,324.001,131.112,329.429z"/>
			</g>
		</g>
	</g>
	<path style="opacity:0.09;fill:#F6F5F5;" d="M106.254,0.402L84.291,0.447c-3.201,0-6.365,0.67-9.291,1.951L13.937,29.132
		C5.457,32.847-0.015,41.23,0,50.476l0.119,69.848c0.008,5.397,1.869,10.348,4.966,14.294H4.474l0.03,18.084h0.595
		c-0.372,1.667-0.588,3.402-0.588,5.182l0.514,309.298c0.014,9.745,6.105,18.448,15.255,21.806l58.859,21.59
		c2.575,0.946,5.301,1.429,8.048,1.423l19.066-0.03V0.402z"/>
	<path style="opacity:0.14;fill:#1C2A55;" d="M435.325,157.161l0.492,309.321c0.03,9.738-6.023,18.463-15.158,21.858l-58.785,21.768
		c-2.598,0.961-5.308,1.452-8.048,1.452l-39.666,0.06V0.059h8.018L355.002,0c3.201,0,6.35,0.656,9.306,1.914l61.137,26.541
		c8.48,3.693,13.982,12.031,14.004,21.308l0.111,69.84c0,5.39-1.809,10.341-4.899,14.309h0.603l0.06,18.084h-0.603
		C435.101,153.663,435.325,155.382,435.325,157.161z"/>
</g>
</svg>