<?xml version="1.0" encoding="iso-8859-1"?>

<!DOCTYPE svg PUBLIC "-//W3C//DTD SVG 1.1//EN" "http://www.w3.org/Graphics/SVG/1.1/DTD/svg11.dtd">
<!-- Uploaded to: SVG Repo, www.svgrepo.com, Generator: SVG Repo Mixer Tools -->
<svg version="1.1" id="_x35_" xmlns="http://www.w3.org/2000/svg" xmlns:xlink="http://www.w3.org/1999/xlink" 
	 viewBox="0 0 512 512"  xml:space="preserve">
<g>
	<g>
		<path style="fill:#7F7F7F;" d="M135.942,293.002h-4.052c-2.452,0-4.458-2.006-4.458-4.458v-70.066
			c0-2.452,2.006-4.458,4.458-4.458h4.052c2.452,0,4.458,2.006,4.458,4.458v70.066C140.4,290.996,138.394,293.002,135.942,293.002z"
			/>
		<path style="fill:#7F7F7F;" d="M263.881,271.104v4.044c0,2.494-2.022,4.516-4.448,4.516H5.999c-2.426,0-4.448-2.022-4.448-4.516
			v-4.044c0-2.427,2.022-4.449,4.448-4.449h253.433C261.859,266.655,263.881,268.677,263.881,271.104z"/>
		<g>
			<rect y="262.881" style="fill:#4A4949;" width="13.615" height="20.76"/>
			<rect x="251.792" y="262.864" style="fill:#4A4949;" width="13.622" height="20.75"/>
		</g>
		<g>
			<g>
				<g>
					<polygon style="fill:#4A4949;" points="68.683,450.124 65.178,472.636 59.382,509.775 59.045,512 47.721,501.755 
						48.193,498.587 52.237,472.636 56.483,473.311 56.82,471.356 50.282,470.345 53.787,447.765 60.325,448.776 					"/>
					<path style="fill:#CCCCCC;" d="M116.606,174.178l-7.28,46.239l-7.28,46.238l-2.089,13.009L69.425,473.311l-4.246-0.675
						l-8.358-1.28l-6.538-1.011l-5.931-0.944l-29.522-54.932l3.707-23.726l6.606-42.261l10.717-68.818l2.022-13.009l15.975-102.25
						c0.404-2.426,1.887-4.448,3.909-5.662c1.618-0.944,3.572-1.416,5.527-1.146l0.607,0.067l46.305,7.28
						C114.45,165.619,117.28,169.73,116.606,174.178z"/>
				</g>
				<path style="fill:#F0F0F0;" d="M103.665,174.178l-7.279,46.239l-7.347,46.238l-2.022,13.009L72.121,373.96l-1.078,7.077
					l-10.717,67.74l-3.505,22.58l-6.538-1.011l-5.931-0.944l-29.522-54.932l3.707-23.726l6.606-42.261l10.717-68.818l2.022-13.009
					l15.975-102.25c0.404-2.426,1.887-4.448,3.909-5.662l6.268,1.011l33.297,5.19C101.508,165.619,104.407,169.73,103.665,174.178z"
					/>
			</g>
			<g>
				<g>
					<polygon style="fill:#4A4949;" points="192.941,450.115 196.449,472.663 202.569,511.976 213.892,501.767 209.343,472.638 
						205.086,473.316 204.771,471.356 211.303,470.34 207.795,447.793 201.263,448.809 					"/>
					<path style="fill:#CCCCCC;" d="M144.991,174.15l47.2,299.166l4.258-0.653l8.322-1.307l6.532-1.016l5.976-0.944l29.467-54.917
						l-38.999-250.104c-0.387-2.419-1.911-4.403-3.895-5.612c-1.645-0.992-3.605-1.428-5.516-1.137l-46.958,7.306
						C147.168,165.585,144.314,169.723,144.991,174.15z"/>
				</g>
				<path style="fill:#F0F0F0;" d="M157.91,174.15l43.353,274.659l3.508,22.548l6.532-1.016l5.976-0.944l29.467-54.917
					l-38.999-250.104c-0.387-2.419-1.911-4.403-3.895-5.612l-39.555,6.169C160.063,165.585,157.208,169.723,157.91,174.15z"/>
			</g>
		</g>
		<path style="fill:#B8B8B8;" d="M155.295,16.66v64.235c0,9.166-7.482,16.648-16.649,16.648h-15.098
			c-9.167,0-16.648-7.482-16.648-16.648V16.66c0-9.167,7.482-16.648,16.648-16.648h15.098
			C147.813,0.012,155.295,7.492,155.295,16.66z"/>
		<path style="fill:#746E3E;" d="M199.848,62.089c-1.213-5.999-6.201-10.92-12.807-12.807c-1.887-0.606-3.977-0.876-6.133-0.876
			H81.287c-10.582,0-19.209,7.347-19.209,16.446v70.975l1.82,21.838l0.135,2.09l3.64,44.216c0,9.031,8.695,16.446,19.277,16.446
			h88.297c10.582,0,19.277-7.415,19.277-16.446l3.64-44.351l0.135-2.022h0.067l1.753-21.771V64.852
			C200.118,63.909,200.05,62.964,199.848,62.089z"/>
		<circle style="opacity:0.07;fill:#040000;" cx="131.096" cy="135.102" r="24.641"/>
		<path style="fill:#B8B8B8;" d="M72.188,372.814c0,0.404,0,0.809-0.067,1.146c-0.067,2.493-0.404,4.853-1.078,7.077
			c-3.572,12.469-15.031,21.637-28.646,21.637c-9.773,0-18.468-4.651-23.861-11.93c-3.775-4.988-5.998-11.189-5.998-17.929
			c0-10.043,4.988-18.94,12.604-24.332c4.853-3.505,10.784-5.527,17.255-5.527C58.843,342.954,72.188,356.367,72.188,372.814z"/>
	</g>
	<polygon style="fill:none;" points="140.4,220.425 140.4,266.667 159.588,266.667 152.292,220.425 	"/>
	<polygon style="fill:none;" points="102.014,266.667 127.431,266.667 127.431,220.425 109.309,220.425 	"/>
	<path style="opacity:0.07;fill:#040000;" d="M251.792,262.864v3.804h-28.095l-15.951-102.292c-0.387-2.419-1.911-4.403-3.895-5.613
		c-1.644-0.991-3.603-1.427-5.514-1.136l1.798-21.771V64.82c0-9.035-8.659-16.429-19.241-16.429h-25.589V16.645
		C155.306,7.49,147.815,0,138.661,0h-5.945v293.002h3.227c2.452,0,4.458-2.007,4.458-4.459v-8.907h21.234l30.557,193.679
		l4.258-0.653l6.121,39.313l11.322-10.209l-4.548-29.128l-4.257,0.678l-0.315-1.96l6.532-1.015l5.975-0.944l29.467-54.918
		l-21.026-134.842h26.072v3.977h13.622v-20.75H251.792z M140.4,266.667v-46.242h11.892l7.296,46.242H140.4z"/>
</g>
</svg>